G75*
%MOIN*%
%OFA0B0*%
%FSLAX25Y25*%
%IPPOS*%
%LPD*%
%AMOC8*
5,1,8,0,0,1.08239X$1,22.5*
%
%ADD10C,0.00000*%
%ADD11C,0.01300*%
%ADD12C,0.07200*%
%ADD13C,0.09240*%
%ADD14C,0.07600*%
%ADD15C,0.12299*%
%ADD16R,0.05906X0.05118*%
%ADD17R,0.07874X0.05906*%
%ADD18C,0.11900*%
%ADD19R,0.05906X0.07874*%
%ADD20C,0.10000*%
%ADD21C,0.07150*%
%ADD22C,0.08400*%
%ADD23C,0.08268*%
%ADD24R,0.05118X0.05906*%
%ADD25R,0.03150X0.05906*%
%ADD26R,0.05709X0.07874*%
%ADD27C,0.04000*%
%ADD28C,0.10000*%
%ADD29C,0.07000*%
%ADD30C,0.05000*%
%ADD31C,0.06600*%
%ADD32C,0.02400*%
%ADD33C,0.03200*%
%ADD34C,0.05600*%
D10*
X0001256Y0043933D02*
X0001256Y0673933D01*
X0451256Y0673933D01*
X0451256Y0043933D01*
X0001256Y0043933D01*
X0014957Y0083933D02*
X0014959Y0084091D01*
X0014965Y0084249D01*
X0014975Y0084407D01*
X0014989Y0084565D01*
X0015007Y0084722D01*
X0015028Y0084879D01*
X0015054Y0085035D01*
X0015084Y0085191D01*
X0015117Y0085346D01*
X0015155Y0085499D01*
X0015196Y0085652D01*
X0015241Y0085804D01*
X0015290Y0085955D01*
X0015343Y0086104D01*
X0015399Y0086252D01*
X0015459Y0086398D01*
X0015523Y0086543D01*
X0015591Y0086686D01*
X0015662Y0086828D01*
X0015736Y0086968D01*
X0015814Y0087105D01*
X0015896Y0087241D01*
X0015980Y0087375D01*
X0016069Y0087506D01*
X0016160Y0087635D01*
X0016255Y0087762D01*
X0016352Y0087887D01*
X0016453Y0088009D01*
X0016557Y0088128D01*
X0016664Y0088245D01*
X0016774Y0088359D01*
X0016887Y0088470D01*
X0017002Y0088579D01*
X0017120Y0088684D01*
X0017241Y0088786D01*
X0017364Y0088886D01*
X0017490Y0088982D01*
X0017618Y0089075D01*
X0017748Y0089165D01*
X0017881Y0089251D01*
X0018016Y0089335D01*
X0018152Y0089414D01*
X0018291Y0089491D01*
X0018432Y0089563D01*
X0018574Y0089633D01*
X0018718Y0089698D01*
X0018864Y0089760D01*
X0019011Y0089818D01*
X0019160Y0089873D01*
X0019310Y0089924D01*
X0019461Y0089971D01*
X0019613Y0090014D01*
X0019766Y0090053D01*
X0019921Y0090089D01*
X0020076Y0090120D01*
X0020232Y0090148D01*
X0020388Y0090172D01*
X0020545Y0090192D01*
X0020703Y0090208D01*
X0020860Y0090220D01*
X0021019Y0090228D01*
X0021177Y0090232D01*
X0021335Y0090232D01*
X0021493Y0090228D01*
X0021652Y0090220D01*
X0021809Y0090208D01*
X0021967Y0090192D01*
X0022124Y0090172D01*
X0022280Y0090148D01*
X0022436Y0090120D01*
X0022591Y0090089D01*
X0022746Y0090053D01*
X0022899Y0090014D01*
X0023051Y0089971D01*
X0023202Y0089924D01*
X0023352Y0089873D01*
X0023501Y0089818D01*
X0023648Y0089760D01*
X0023794Y0089698D01*
X0023938Y0089633D01*
X0024080Y0089563D01*
X0024221Y0089491D01*
X0024360Y0089414D01*
X0024496Y0089335D01*
X0024631Y0089251D01*
X0024764Y0089165D01*
X0024894Y0089075D01*
X0025022Y0088982D01*
X0025148Y0088886D01*
X0025271Y0088786D01*
X0025392Y0088684D01*
X0025510Y0088579D01*
X0025625Y0088470D01*
X0025738Y0088359D01*
X0025848Y0088245D01*
X0025955Y0088128D01*
X0026059Y0088009D01*
X0026160Y0087887D01*
X0026257Y0087762D01*
X0026352Y0087635D01*
X0026443Y0087506D01*
X0026532Y0087375D01*
X0026616Y0087241D01*
X0026698Y0087105D01*
X0026776Y0086968D01*
X0026850Y0086828D01*
X0026921Y0086686D01*
X0026989Y0086543D01*
X0027053Y0086398D01*
X0027113Y0086252D01*
X0027169Y0086104D01*
X0027222Y0085955D01*
X0027271Y0085804D01*
X0027316Y0085652D01*
X0027357Y0085499D01*
X0027395Y0085346D01*
X0027428Y0085191D01*
X0027458Y0085035D01*
X0027484Y0084879D01*
X0027505Y0084722D01*
X0027523Y0084565D01*
X0027537Y0084407D01*
X0027547Y0084249D01*
X0027553Y0084091D01*
X0027555Y0083933D01*
X0027553Y0083775D01*
X0027547Y0083617D01*
X0027537Y0083459D01*
X0027523Y0083301D01*
X0027505Y0083144D01*
X0027484Y0082987D01*
X0027458Y0082831D01*
X0027428Y0082675D01*
X0027395Y0082520D01*
X0027357Y0082367D01*
X0027316Y0082214D01*
X0027271Y0082062D01*
X0027222Y0081911D01*
X0027169Y0081762D01*
X0027113Y0081614D01*
X0027053Y0081468D01*
X0026989Y0081323D01*
X0026921Y0081180D01*
X0026850Y0081038D01*
X0026776Y0080898D01*
X0026698Y0080761D01*
X0026616Y0080625D01*
X0026532Y0080491D01*
X0026443Y0080360D01*
X0026352Y0080231D01*
X0026257Y0080104D01*
X0026160Y0079979D01*
X0026059Y0079857D01*
X0025955Y0079738D01*
X0025848Y0079621D01*
X0025738Y0079507D01*
X0025625Y0079396D01*
X0025510Y0079287D01*
X0025392Y0079182D01*
X0025271Y0079080D01*
X0025148Y0078980D01*
X0025022Y0078884D01*
X0024894Y0078791D01*
X0024764Y0078701D01*
X0024631Y0078615D01*
X0024496Y0078531D01*
X0024360Y0078452D01*
X0024221Y0078375D01*
X0024080Y0078303D01*
X0023938Y0078233D01*
X0023794Y0078168D01*
X0023648Y0078106D01*
X0023501Y0078048D01*
X0023352Y0077993D01*
X0023202Y0077942D01*
X0023051Y0077895D01*
X0022899Y0077852D01*
X0022746Y0077813D01*
X0022591Y0077777D01*
X0022436Y0077746D01*
X0022280Y0077718D01*
X0022124Y0077694D01*
X0021967Y0077674D01*
X0021809Y0077658D01*
X0021652Y0077646D01*
X0021493Y0077638D01*
X0021335Y0077634D01*
X0021177Y0077634D01*
X0021019Y0077638D01*
X0020860Y0077646D01*
X0020703Y0077658D01*
X0020545Y0077674D01*
X0020388Y0077694D01*
X0020232Y0077718D01*
X0020076Y0077746D01*
X0019921Y0077777D01*
X0019766Y0077813D01*
X0019613Y0077852D01*
X0019461Y0077895D01*
X0019310Y0077942D01*
X0019160Y0077993D01*
X0019011Y0078048D01*
X0018864Y0078106D01*
X0018718Y0078168D01*
X0018574Y0078233D01*
X0018432Y0078303D01*
X0018291Y0078375D01*
X0018152Y0078452D01*
X0018016Y0078531D01*
X0017881Y0078615D01*
X0017748Y0078701D01*
X0017618Y0078791D01*
X0017490Y0078884D01*
X0017364Y0078980D01*
X0017241Y0079080D01*
X0017120Y0079182D01*
X0017002Y0079287D01*
X0016887Y0079396D01*
X0016774Y0079507D01*
X0016664Y0079621D01*
X0016557Y0079738D01*
X0016453Y0079857D01*
X0016352Y0079979D01*
X0016255Y0080104D01*
X0016160Y0080231D01*
X0016069Y0080360D01*
X0015980Y0080491D01*
X0015896Y0080625D01*
X0015814Y0080761D01*
X0015736Y0080898D01*
X0015662Y0081038D01*
X0015591Y0081180D01*
X0015523Y0081323D01*
X0015459Y0081468D01*
X0015399Y0081614D01*
X0015343Y0081762D01*
X0015290Y0081911D01*
X0015241Y0082062D01*
X0015196Y0082214D01*
X0015155Y0082367D01*
X0015117Y0082520D01*
X0015084Y0082675D01*
X0015054Y0082831D01*
X0015028Y0082987D01*
X0015007Y0083144D01*
X0014989Y0083301D01*
X0014975Y0083459D01*
X0014965Y0083617D01*
X0014959Y0083775D01*
X0014957Y0083933D01*
X0100756Y0153933D02*
X0100758Y0154094D01*
X0100764Y0154254D01*
X0100774Y0154415D01*
X0100788Y0154575D01*
X0100806Y0154735D01*
X0100827Y0154894D01*
X0100853Y0155053D01*
X0100883Y0155211D01*
X0100916Y0155368D01*
X0100954Y0155525D01*
X0100995Y0155680D01*
X0101040Y0155834D01*
X0101089Y0155987D01*
X0101142Y0156139D01*
X0101198Y0156290D01*
X0101259Y0156439D01*
X0101322Y0156587D01*
X0101390Y0156733D01*
X0101461Y0156877D01*
X0101535Y0157019D01*
X0101613Y0157160D01*
X0101695Y0157298D01*
X0101780Y0157435D01*
X0101868Y0157569D01*
X0101960Y0157701D01*
X0102055Y0157831D01*
X0102153Y0157959D01*
X0102254Y0158084D01*
X0102358Y0158206D01*
X0102465Y0158326D01*
X0102575Y0158443D01*
X0102688Y0158558D01*
X0102804Y0158669D01*
X0102923Y0158778D01*
X0103044Y0158883D01*
X0103168Y0158986D01*
X0103294Y0159086D01*
X0103422Y0159182D01*
X0103553Y0159275D01*
X0103687Y0159365D01*
X0103822Y0159452D01*
X0103960Y0159535D01*
X0104099Y0159615D01*
X0104241Y0159691D01*
X0104384Y0159764D01*
X0104529Y0159833D01*
X0104676Y0159899D01*
X0104824Y0159961D01*
X0104974Y0160019D01*
X0105125Y0160074D01*
X0105278Y0160125D01*
X0105432Y0160172D01*
X0105587Y0160215D01*
X0105743Y0160254D01*
X0105899Y0160290D01*
X0106057Y0160321D01*
X0106215Y0160349D01*
X0106374Y0160373D01*
X0106534Y0160393D01*
X0106694Y0160409D01*
X0106854Y0160421D01*
X0107015Y0160429D01*
X0107176Y0160433D01*
X0107336Y0160433D01*
X0107497Y0160429D01*
X0107658Y0160421D01*
X0107818Y0160409D01*
X0107978Y0160393D01*
X0108138Y0160373D01*
X0108297Y0160349D01*
X0108455Y0160321D01*
X0108613Y0160290D01*
X0108769Y0160254D01*
X0108925Y0160215D01*
X0109080Y0160172D01*
X0109234Y0160125D01*
X0109387Y0160074D01*
X0109538Y0160019D01*
X0109688Y0159961D01*
X0109836Y0159899D01*
X0109983Y0159833D01*
X0110128Y0159764D01*
X0110271Y0159691D01*
X0110413Y0159615D01*
X0110552Y0159535D01*
X0110690Y0159452D01*
X0110825Y0159365D01*
X0110959Y0159275D01*
X0111090Y0159182D01*
X0111218Y0159086D01*
X0111344Y0158986D01*
X0111468Y0158883D01*
X0111589Y0158778D01*
X0111708Y0158669D01*
X0111824Y0158558D01*
X0111937Y0158443D01*
X0112047Y0158326D01*
X0112154Y0158206D01*
X0112258Y0158084D01*
X0112359Y0157959D01*
X0112457Y0157831D01*
X0112552Y0157701D01*
X0112644Y0157569D01*
X0112732Y0157435D01*
X0112817Y0157298D01*
X0112899Y0157160D01*
X0112977Y0157019D01*
X0113051Y0156877D01*
X0113122Y0156733D01*
X0113190Y0156587D01*
X0113253Y0156439D01*
X0113314Y0156290D01*
X0113370Y0156139D01*
X0113423Y0155987D01*
X0113472Y0155834D01*
X0113517Y0155680D01*
X0113558Y0155525D01*
X0113596Y0155368D01*
X0113629Y0155211D01*
X0113659Y0155053D01*
X0113685Y0154894D01*
X0113706Y0154735D01*
X0113724Y0154575D01*
X0113738Y0154415D01*
X0113748Y0154254D01*
X0113754Y0154094D01*
X0113756Y0153933D01*
X0113754Y0153772D01*
X0113748Y0153612D01*
X0113738Y0153451D01*
X0113724Y0153291D01*
X0113706Y0153131D01*
X0113685Y0152972D01*
X0113659Y0152813D01*
X0113629Y0152655D01*
X0113596Y0152498D01*
X0113558Y0152341D01*
X0113517Y0152186D01*
X0113472Y0152032D01*
X0113423Y0151879D01*
X0113370Y0151727D01*
X0113314Y0151576D01*
X0113253Y0151427D01*
X0113190Y0151279D01*
X0113122Y0151133D01*
X0113051Y0150989D01*
X0112977Y0150847D01*
X0112899Y0150706D01*
X0112817Y0150568D01*
X0112732Y0150431D01*
X0112644Y0150297D01*
X0112552Y0150165D01*
X0112457Y0150035D01*
X0112359Y0149907D01*
X0112258Y0149782D01*
X0112154Y0149660D01*
X0112047Y0149540D01*
X0111937Y0149423D01*
X0111824Y0149308D01*
X0111708Y0149197D01*
X0111589Y0149088D01*
X0111468Y0148983D01*
X0111344Y0148880D01*
X0111218Y0148780D01*
X0111090Y0148684D01*
X0110959Y0148591D01*
X0110825Y0148501D01*
X0110690Y0148414D01*
X0110552Y0148331D01*
X0110413Y0148251D01*
X0110271Y0148175D01*
X0110128Y0148102D01*
X0109983Y0148033D01*
X0109836Y0147967D01*
X0109688Y0147905D01*
X0109538Y0147847D01*
X0109387Y0147792D01*
X0109234Y0147741D01*
X0109080Y0147694D01*
X0108925Y0147651D01*
X0108769Y0147612D01*
X0108613Y0147576D01*
X0108455Y0147545D01*
X0108297Y0147517D01*
X0108138Y0147493D01*
X0107978Y0147473D01*
X0107818Y0147457D01*
X0107658Y0147445D01*
X0107497Y0147437D01*
X0107336Y0147433D01*
X0107176Y0147433D01*
X0107015Y0147437D01*
X0106854Y0147445D01*
X0106694Y0147457D01*
X0106534Y0147473D01*
X0106374Y0147493D01*
X0106215Y0147517D01*
X0106057Y0147545D01*
X0105899Y0147576D01*
X0105743Y0147612D01*
X0105587Y0147651D01*
X0105432Y0147694D01*
X0105278Y0147741D01*
X0105125Y0147792D01*
X0104974Y0147847D01*
X0104824Y0147905D01*
X0104676Y0147967D01*
X0104529Y0148033D01*
X0104384Y0148102D01*
X0104241Y0148175D01*
X0104099Y0148251D01*
X0103960Y0148331D01*
X0103822Y0148414D01*
X0103687Y0148501D01*
X0103553Y0148591D01*
X0103422Y0148684D01*
X0103294Y0148780D01*
X0103168Y0148880D01*
X0103044Y0148983D01*
X0102923Y0149088D01*
X0102804Y0149197D01*
X0102688Y0149308D01*
X0102575Y0149423D01*
X0102465Y0149540D01*
X0102358Y0149660D01*
X0102254Y0149782D01*
X0102153Y0149907D01*
X0102055Y0150035D01*
X0101960Y0150165D01*
X0101868Y0150297D01*
X0101780Y0150431D01*
X0101695Y0150568D01*
X0101613Y0150706D01*
X0101535Y0150847D01*
X0101461Y0150989D01*
X0101390Y0151133D01*
X0101322Y0151279D01*
X0101259Y0151427D01*
X0101198Y0151576D01*
X0101142Y0151727D01*
X0101089Y0151879D01*
X0101040Y0152032D01*
X0100995Y0152186D01*
X0100954Y0152341D01*
X0100916Y0152498D01*
X0100883Y0152655D01*
X0100853Y0152813D01*
X0100827Y0152972D01*
X0100806Y0153131D01*
X0100788Y0153291D01*
X0100774Y0153451D01*
X0100764Y0153612D01*
X0100758Y0153772D01*
X0100756Y0153933D01*
X0100756Y0218933D02*
X0100758Y0219094D01*
X0100764Y0219254D01*
X0100774Y0219415D01*
X0100788Y0219575D01*
X0100806Y0219735D01*
X0100827Y0219894D01*
X0100853Y0220053D01*
X0100883Y0220211D01*
X0100916Y0220368D01*
X0100954Y0220525D01*
X0100995Y0220680D01*
X0101040Y0220834D01*
X0101089Y0220987D01*
X0101142Y0221139D01*
X0101198Y0221290D01*
X0101259Y0221439D01*
X0101322Y0221587D01*
X0101390Y0221733D01*
X0101461Y0221877D01*
X0101535Y0222019D01*
X0101613Y0222160D01*
X0101695Y0222298D01*
X0101780Y0222435D01*
X0101868Y0222569D01*
X0101960Y0222701D01*
X0102055Y0222831D01*
X0102153Y0222959D01*
X0102254Y0223084D01*
X0102358Y0223206D01*
X0102465Y0223326D01*
X0102575Y0223443D01*
X0102688Y0223558D01*
X0102804Y0223669D01*
X0102923Y0223778D01*
X0103044Y0223883D01*
X0103168Y0223986D01*
X0103294Y0224086D01*
X0103422Y0224182D01*
X0103553Y0224275D01*
X0103687Y0224365D01*
X0103822Y0224452D01*
X0103960Y0224535D01*
X0104099Y0224615D01*
X0104241Y0224691D01*
X0104384Y0224764D01*
X0104529Y0224833D01*
X0104676Y0224899D01*
X0104824Y0224961D01*
X0104974Y0225019D01*
X0105125Y0225074D01*
X0105278Y0225125D01*
X0105432Y0225172D01*
X0105587Y0225215D01*
X0105743Y0225254D01*
X0105899Y0225290D01*
X0106057Y0225321D01*
X0106215Y0225349D01*
X0106374Y0225373D01*
X0106534Y0225393D01*
X0106694Y0225409D01*
X0106854Y0225421D01*
X0107015Y0225429D01*
X0107176Y0225433D01*
X0107336Y0225433D01*
X0107497Y0225429D01*
X0107658Y0225421D01*
X0107818Y0225409D01*
X0107978Y0225393D01*
X0108138Y0225373D01*
X0108297Y0225349D01*
X0108455Y0225321D01*
X0108613Y0225290D01*
X0108769Y0225254D01*
X0108925Y0225215D01*
X0109080Y0225172D01*
X0109234Y0225125D01*
X0109387Y0225074D01*
X0109538Y0225019D01*
X0109688Y0224961D01*
X0109836Y0224899D01*
X0109983Y0224833D01*
X0110128Y0224764D01*
X0110271Y0224691D01*
X0110413Y0224615D01*
X0110552Y0224535D01*
X0110690Y0224452D01*
X0110825Y0224365D01*
X0110959Y0224275D01*
X0111090Y0224182D01*
X0111218Y0224086D01*
X0111344Y0223986D01*
X0111468Y0223883D01*
X0111589Y0223778D01*
X0111708Y0223669D01*
X0111824Y0223558D01*
X0111937Y0223443D01*
X0112047Y0223326D01*
X0112154Y0223206D01*
X0112258Y0223084D01*
X0112359Y0222959D01*
X0112457Y0222831D01*
X0112552Y0222701D01*
X0112644Y0222569D01*
X0112732Y0222435D01*
X0112817Y0222298D01*
X0112899Y0222160D01*
X0112977Y0222019D01*
X0113051Y0221877D01*
X0113122Y0221733D01*
X0113190Y0221587D01*
X0113253Y0221439D01*
X0113314Y0221290D01*
X0113370Y0221139D01*
X0113423Y0220987D01*
X0113472Y0220834D01*
X0113517Y0220680D01*
X0113558Y0220525D01*
X0113596Y0220368D01*
X0113629Y0220211D01*
X0113659Y0220053D01*
X0113685Y0219894D01*
X0113706Y0219735D01*
X0113724Y0219575D01*
X0113738Y0219415D01*
X0113748Y0219254D01*
X0113754Y0219094D01*
X0113756Y0218933D01*
X0113754Y0218772D01*
X0113748Y0218612D01*
X0113738Y0218451D01*
X0113724Y0218291D01*
X0113706Y0218131D01*
X0113685Y0217972D01*
X0113659Y0217813D01*
X0113629Y0217655D01*
X0113596Y0217498D01*
X0113558Y0217341D01*
X0113517Y0217186D01*
X0113472Y0217032D01*
X0113423Y0216879D01*
X0113370Y0216727D01*
X0113314Y0216576D01*
X0113253Y0216427D01*
X0113190Y0216279D01*
X0113122Y0216133D01*
X0113051Y0215989D01*
X0112977Y0215847D01*
X0112899Y0215706D01*
X0112817Y0215568D01*
X0112732Y0215431D01*
X0112644Y0215297D01*
X0112552Y0215165D01*
X0112457Y0215035D01*
X0112359Y0214907D01*
X0112258Y0214782D01*
X0112154Y0214660D01*
X0112047Y0214540D01*
X0111937Y0214423D01*
X0111824Y0214308D01*
X0111708Y0214197D01*
X0111589Y0214088D01*
X0111468Y0213983D01*
X0111344Y0213880D01*
X0111218Y0213780D01*
X0111090Y0213684D01*
X0110959Y0213591D01*
X0110825Y0213501D01*
X0110690Y0213414D01*
X0110552Y0213331D01*
X0110413Y0213251D01*
X0110271Y0213175D01*
X0110128Y0213102D01*
X0109983Y0213033D01*
X0109836Y0212967D01*
X0109688Y0212905D01*
X0109538Y0212847D01*
X0109387Y0212792D01*
X0109234Y0212741D01*
X0109080Y0212694D01*
X0108925Y0212651D01*
X0108769Y0212612D01*
X0108613Y0212576D01*
X0108455Y0212545D01*
X0108297Y0212517D01*
X0108138Y0212493D01*
X0107978Y0212473D01*
X0107818Y0212457D01*
X0107658Y0212445D01*
X0107497Y0212437D01*
X0107336Y0212433D01*
X0107176Y0212433D01*
X0107015Y0212437D01*
X0106854Y0212445D01*
X0106694Y0212457D01*
X0106534Y0212473D01*
X0106374Y0212493D01*
X0106215Y0212517D01*
X0106057Y0212545D01*
X0105899Y0212576D01*
X0105743Y0212612D01*
X0105587Y0212651D01*
X0105432Y0212694D01*
X0105278Y0212741D01*
X0105125Y0212792D01*
X0104974Y0212847D01*
X0104824Y0212905D01*
X0104676Y0212967D01*
X0104529Y0213033D01*
X0104384Y0213102D01*
X0104241Y0213175D01*
X0104099Y0213251D01*
X0103960Y0213331D01*
X0103822Y0213414D01*
X0103687Y0213501D01*
X0103553Y0213591D01*
X0103422Y0213684D01*
X0103294Y0213780D01*
X0103168Y0213880D01*
X0103044Y0213983D01*
X0102923Y0214088D01*
X0102804Y0214197D01*
X0102688Y0214308D01*
X0102575Y0214423D01*
X0102465Y0214540D01*
X0102358Y0214660D01*
X0102254Y0214782D01*
X0102153Y0214907D01*
X0102055Y0215035D01*
X0101960Y0215165D01*
X0101868Y0215297D01*
X0101780Y0215431D01*
X0101695Y0215568D01*
X0101613Y0215706D01*
X0101535Y0215847D01*
X0101461Y0215989D01*
X0101390Y0216133D01*
X0101322Y0216279D01*
X0101259Y0216427D01*
X0101198Y0216576D01*
X0101142Y0216727D01*
X0101089Y0216879D01*
X0101040Y0217032D01*
X0100995Y0217186D01*
X0100954Y0217341D01*
X0100916Y0217498D01*
X0100883Y0217655D01*
X0100853Y0217813D01*
X0100827Y0217972D01*
X0100806Y0218131D01*
X0100788Y0218291D01*
X0100774Y0218451D01*
X0100764Y0218612D01*
X0100758Y0218772D01*
X0100756Y0218933D01*
X0100756Y0283933D02*
X0100758Y0284094D01*
X0100764Y0284254D01*
X0100774Y0284415D01*
X0100788Y0284575D01*
X0100806Y0284735D01*
X0100827Y0284894D01*
X0100853Y0285053D01*
X0100883Y0285211D01*
X0100916Y0285368D01*
X0100954Y0285525D01*
X0100995Y0285680D01*
X0101040Y0285834D01*
X0101089Y0285987D01*
X0101142Y0286139D01*
X0101198Y0286290D01*
X0101259Y0286439D01*
X0101322Y0286587D01*
X0101390Y0286733D01*
X0101461Y0286877D01*
X0101535Y0287019D01*
X0101613Y0287160D01*
X0101695Y0287298D01*
X0101780Y0287435D01*
X0101868Y0287569D01*
X0101960Y0287701D01*
X0102055Y0287831D01*
X0102153Y0287959D01*
X0102254Y0288084D01*
X0102358Y0288206D01*
X0102465Y0288326D01*
X0102575Y0288443D01*
X0102688Y0288558D01*
X0102804Y0288669D01*
X0102923Y0288778D01*
X0103044Y0288883D01*
X0103168Y0288986D01*
X0103294Y0289086D01*
X0103422Y0289182D01*
X0103553Y0289275D01*
X0103687Y0289365D01*
X0103822Y0289452D01*
X0103960Y0289535D01*
X0104099Y0289615D01*
X0104241Y0289691D01*
X0104384Y0289764D01*
X0104529Y0289833D01*
X0104676Y0289899D01*
X0104824Y0289961D01*
X0104974Y0290019D01*
X0105125Y0290074D01*
X0105278Y0290125D01*
X0105432Y0290172D01*
X0105587Y0290215D01*
X0105743Y0290254D01*
X0105899Y0290290D01*
X0106057Y0290321D01*
X0106215Y0290349D01*
X0106374Y0290373D01*
X0106534Y0290393D01*
X0106694Y0290409D01*
X0106854Y0290421D01*
X0107015Y0290429D01*
X0107176Y0290433D01*
X0107336Y0290433D01*
X0107497Y0290429D01*
X0107658Y0290421D01*
X0107818Y0290409D01*
X0107978Y0290393D01*
X0108138Y0290373D01*
X0108297Y0290349D01*
X0108455Y0290321D01*
X0108613Y0290290D01*
X0108769Y0290254D01*
X0108925Y0290215D01*
X0109080Y0290172D01*
X0109234Y0290125D01*
X0109387Y0290074D01*
X0109538Y0290019D01*
X0109688Y0289961D01*
X0109836Y0289899D01*
X0109983Y0289833D01*
X0110128Y0289764D01*
X0110271Y0289691D01*
X0110413Y0289615D01*
X0110552Y0289535D01*
X0110690Y0289452D01*
X0110825Y0289365D01*
X0110959Y0289275D01*
X0111090Y0289182D01*
X0111218Y0289086D01*
X0111344Y0288986D01*
X0111468Y0288883D01*
X0111589Y0288778D01*
X0111708Y0288669D01*
X0111824Y0288558D01*
X0111937Y0288443D01*
X0112047Y0288326D01*
X0112154Y0288206D01*
X0112258Y0288084D01*
X0112359Y0287959D01*
X0112457Y0287831D01*
X0112552Y0287701D01*
X0112644Y0287569D01*
X0112732Y0287435D01*
X0112817Y0287298D01*
X0112899Y0287160D01*
X0112977Y0287019D01*
X0113051Y0286877D01*
X0113122Y0286733D01*
X0113190Y0286587D01*
X0113253Y0286439D01*
X0113314Y0286290D01*
X0113370Y0286139D01*
X0113423Y0285987D01*
X0113472Y0285834D01*
X0113517Y0285680D01*
X0113558Y0285525D01*
X0113596Y0285368D01*
X0113629Y0285211D01*
X0113659Y0285053D01*
X0113685Y0284894D01*
X0113706Y0284735D01*
X0113724Y0284575D01*
X0113738Y0284415D01*
X0113748Y0284254D01*
X0113754Y0284094D01*
X0113756Y0283933D01*
X0113754Y0283772D01*
X0113748Y0283612D01*
X0113738Y0283451D01*
X0113724Y0283291D01*
X0113706Y0283131D01*
X0113685Y0282972D01*
X0113659Y0282813D01*
X0113629Y0282655D01*
X0113596Y0282498D01*
X0113558Y0282341D01*
X0113517Y0282186D01*
X0113472Y0282032D01*
X0113423Y0281879D01*
X0113370Y0281727D01*
X0113314Y0281576D01*
X0113253Y0281427D01*
X0113190Y0281279D01*
X0113122Y0281133D01*
X0113051Y0280989D01*
X0112977Y0280847D01*
X0112899Y0280706D01*
X0112817Y0280568D01*
X0112732Y0280431D01*
X0112644Y0280297D01*
X0112552Y0280165D01*
X0112457Y0280035D01*
X0112359Y0279907D01*
X0112258Y0279782D01*
X0112154Y0279660D01*
X0112047Y0279540D01*
X0111937Y0279423D01*
X0111824Y0279308D01*
X0111708Y0279197D01*
X0111589Y0279088D01*
X0111468Y0278983D01*
X0111344Y0278880D01*
X0111218Y0278780D01*
X0111090Y0278684D01*
X0110959Y0278591D01*
X0110825Y0278501D01*
X0110690Y0278414D01*
X0110552Y0278331D01*
X0110413Y0278251D01*
X0110271Y0278175D01*
X0110128Y0278102D01*
X0109983Y0278033D01*
X0109836Y0277967D01*
X0109688Y0277905D01*
X0109538Y0277847D01*
X0109387Y0277792D01*
X0109234Y0277741D01*
X0109080Y0277694D01*
X0108925Y0277651D01*
X0108769Y0277612D01*
X0108613Y0277576D01*
X0108455Y0277545D01*
X0108297Y0277517D01*
X0108138Y0277493D01*
X0107978Y0277473D01*
X0107818Y0277457D01*
X0107658Y0277445D01*
X0107497Y0277437D01*
X0107336Y0277433D01*
X0107176Y0277433D01*
X0107015Y0277437D01*
X0106854Y0277445D01*
X0106694Y0277457D01*
X0106534Y0277473D01*
X0106374Y0277493D01*
X0106215Y0277517D01*
X0106057Y0277545D01*
X0105899Y0277576D01*
X0105743Y0277612D01*
X0105587Y0277651D01*
X0105432Y0277694D01*
X0105278Y0277741D01*
X0105125Y0277792D01*
X0104974Y0277847D01*
X0104824Y0277905D01*
X0104676Y0277967D01*
X0104529Y0278033D01*
X0104384Y0278102D01*
X0104241Y0278175D01*
X0104099Y0278251D01*
X0103960Y0278331D01*
X0103822Y0278414D01*
X0103687Y0278501D01*
X0103553Y0278591D01*
X0103422Y0278684D01*
X0103294Y0278780D01*
X0103168Y0278880D01*
X0103044Y0278983D01*
X0102923Y0279088D01*
X0102804Y0279197D01*
X0102688Y0279308D01*
X0102575Y0279423D01*
X0102465Y0279540D01*
X0102358Y0279660D01*
X0102254Y0279782D01*
X0102153Y0279907D01*
X0102055Y0280035D01*
X0101960Y0280165D01*
X0101868Y0280297D01*
X0101780Y0280431D01*
X0101695Y0280568D01*
X0101613Y0280706D01*
X0101535Y0280847D01*
X0101461Y0280989D01*
X0101390Y0281133D01*
X0101322Y0281279D01*
X0101259Y0281427D01*
X0101198Y0281576D01*
X0101142Y0281727D01*
X0101089Y0281879D01*
X0101040Y0282032D01*
X0100995Y0282186D01*
X0100954Y0282341D01*
X0100916Y0282498D01*
X0100883Y0282655D01*
X0100853Y0282813D01*
X0100827Y0282972D01*
X0100806Y0283131D01*
X0100788Y0283291D01*
X0100774Y0283451D01*
X0100764Y0283612D01*
X0100758Y0283772D01*
X0100756Y0283933D01*
X0100756Y0348933D02*
X0100758Y0349094D01*
X0100764Y0349254D01*
X0100774Y0349415D01*
X0100788Y0349575D01*
X0100806Y0349735D01*
X0100827Y0349894D01*
X0100853Y0350053D01*
X0100883Y0350211D01*
X0100916Y0350368D01*
X0100954Y0350525D01*
X0100995Y0350680D01*
X0101040Y0350834D01*
X0101089Y0350987D01*
X0101142Y0351139D01*
X0101198Y0351290D01*
X0101259Y0351439D01*
X0101322Y0351587D01*
X0101390Y0351733D01*
X0101461Y0351877D01*
X0101535Y0352019D01*
X0101613Y0352160D01*
X0101695Y0352298D01*
X0101780Y0352435D01*
X0101868Y0352569D01*
X0101960Y0352701D01*
X0102055Y0352831D01*
X0102153Y0352959D01*
X0102254Y0353084D01*
X0102358Y0353206D01*
X0102465Y0353326D01*
X0102575Y0353443D01*
X0102688Y0353558D01*
X0102804Y0353669D01*
X0102923Y0353778D01*
X0103044Y0353883D01*
X0103168Y0353986D01*
X0103294Y0354086D01*
X0103422Y0354182D01*
X0103553Y0354275D01*
X0103687Y0354365D01*
X0103822Y0354452D01*
X0103960Y0354535D01*
X0104099Y0354615D01*
X0104241Y0354691D01*
X0104384Y0354764D01*
X0104529Y0354833D01*
X0104676Y0354899D01*
X0104824Y0354961D01*
X0104974Y0355019D01*
X0105125Y0355074D01*
X0105278Y0355125D01*
X0105432Y0355172D01*
X0105587Y0355215D01*
X0105743Y0355254D01*
X0105899Y0355290D01*
X0106057Y0355321D01*
X0106215Y0355349D01*
X0106374Y0355373D01*
X0106534Y0355393D01*
X0106694Y0355409D01*
X0106854Y0355421D01*
X0107015Y0355429D01*
X0107176Y0355433D01*
X0107336Y0355433D01*
X0107497Y0355429D01*
X0107658Y0355421D01*
X0107818Y0355409D01*
X0107978Y0355393D01*
X0108138Y0355373D01*
X0108297Y0355349D01*
X0108455Y0355321D01*
X0108613Y0355290D01*
X0108769Y0355254D01*
X0108925Y0355215D01*
X0109080Y0355172D01*
X0109234Y0355125D01*
X0109387Y0355074D01*
X0109538Y0355019D01*
X0109688Y0354961D01*
X0109836Y0354899D01*
X0109983Y0354833D01*
X0110128Y0354764D01*
X0110271Y0354691D01*
X0110413Y0354615D01*
X0110552Y0354535D01*
X0110690Y0354452D01*
X0110825Y0354365D01*
X0110959Y0354275D01*
X0111090Y0354182D01*
X0111218Y0354086D01*
X0111344Y0353986D01*
X0111468Y0353883D01*
X0111589Y0353778D01*
X0111708Y0353669D01*
X0111824Y0353558D01*
X0111937Y0353443D01*
X0112047Y0353326D01*
X0112154Y0353206D01*
X0112258Y0353084D01*
X0112359Y0352959D01*
X0112457Y0352831D01*
X0112552Y0352701D01*
X0112644Y0352569D01*
X0112732Y0352435D01*
X0112817Y0352298D01*
X0112899Y0352160D01*
X0112977Y0352019D01*
X0113051Y0351877D01*
X0113122Y0351733D01*
X0113190Y0351587D01*
X0113253Y0351439D01*
X0113314Y0351290D01*
X0113370Y0351139D01*
X0113423Y0350987D01*
X0113472Y0350834D01*
X0113517Y0350680D01*
X0113558Y0350525D01*
X0113596Y0350368D01*
X0113629Y0350211D01*
X0113659Y0350053D01*
X0113685Y0349894D01*
X0113706Y0349735D01*
X0113724Y0349575D01*
X0113738Y0349415D01*
X0113748Y0349254D01*
X0113754Y0349094D01*
X0113756Y0348933D01*
X0113754Y0348772D01*
X0113748Y0348612D01*
X0113738Y0348451D01*
X0113724Y0348291D01*
X0113706Y0348131D01*
X0113685Y0347972D01*
X0113659Y0347813D01*
X0113629Y0347655D01*
X0113596Y0347498D01*
X0113558Y0347341D01*
X0113517Y0347186D01*
X0113472Y0347032D01*
X0113423Y0346879D01*
X0113370Y0346727D01*
X0113314Y0346576D01*
X0113253Y0346427D01*
X0113190Y0346279D01*
X0113122Y0346133D01*
X0113051Y0345989D01*
X0112977Y0345847D01*
X0112899Y0345706D01*
X0112817Y0345568D01*
X0112732Y0345431D01*
X0112644Y0345297D01*
X0112552Y0345165D01*
X0112457Y0345035D01*
X0112359Y0344907D01*
X0112258Y0344782D01*
X0112154Y0344660D01*
X0112047Y0344540D01*
X0111937Y0344423D01*
X0111824Y0344308D01*
X0111708Y0344197D01*
X0111589Y0344088D01*
X0111468Y0343983D01*
X0111344Y0343880D01*
X0111218Y0343780D01*
X0111090Y0343684D01*
X0110959Y0343591D01*
X0110825Y0343501D01*
X0110690Y0343414D01*
X0110552Y0343331D01*
X0110413Y0343251D01*
X0110271Y0343175D01*
X0110128Y0343102D01*
X0109983Y0343033D01*
X0109836Y0342967D01*
X0109688Y0342905D01*
X0109538Y0342847D01*
X0109387Y0342792D01*
X0109234Y0342741D01*
X0109080Y0342694D01*
X0108925Y0342651D01*
X0108769Y0342612D01*
X0108613Y0342576D01*
X0108455Y0342545D01*
X0108297Y0342517D01*
X0108138Y0342493D01*
X0107978Y0342473D01*
X0107818Y0342457D01*
X0107658Y0342445D01*
X0107497Y0342437D01*
X0107336Y0342433D01*
X0107176Y0342433D01*
X0107015Y0342437D01*
X0106854Y0342445D01*
X0106694Y0342457D01*
X0106534Y0342473D01*
X0106374Y0342493D01*
X0106215Y0342517D01*
X0106057Y0342545D01*
X0105899Y0342576D01*
X0105743Y0342612D01*
X0105587Y0342651D01*
X0105432Y0342694D01*
X0105278Y0342741D01*
X0105125Y0342792D01*
X0104974Y0342847D01*
X0104824Y0342905D01*
X0104676Y0342967D01*
X0104529Y0343033D01*
X0104384Y0343102D01*
X0104241Y0343175D01*
X0104099Y0343251D01*
X0103960Y0343331D01*
X0103822Y0343414D01*
X0103687Y0343501D01*
X0103553Y0343591D01*
X0103422Y0343684D01*
X0103294Y0343780D01*
X0103168Y0343880D01*
X0103044Y0343983D01*
X0102923Y0344088D01*
X0102804Y0344197D01*
X0102688Y0344308D01*
X0102575Y0344423D01*
X0102465Y0344540D01*
X0102358Y0344660D01*
X0102254Y0344782D01*
X0102153Y0344907D01*
X0102055Y0345035D01*
X0101960Y0345165D01*
X0101868Y0345297D01*
X0101780Y0345431D01*
X0101695Y0345568D01*
X0101613Y0345706D01*
X0101535Y0345847D01*
X0101461Y0345989D01*
X0101390Y0346133D01*
X0101322Y0346279D01*
X0101259Y0346427D01*
X0101198Y0346576D01*
X0101142Y0346727D01*
X0101089Y0346879D01*
X0101040Y0347032D01*
X0100995Y0347186D01*
X0100954Y0347341D01*
X0100916Y0347498D01*
X0100883Y0347655D01*
X0100853Y0347813D01*
X0100827Y0347972D01*
X0100806Y0348131D01*
X0100788Y0348291D01*
X0100774Y0348451D01*
X0100764Y0348612D01*
X0100758Y0348772D01*
X0100756Y0348933D01*
X0014957Y0513933D02*
X0014959Y0514091D01*
X0014965Y0514249D01*
X0014975Y0514407D01*
X0014989Y0514565D01*
X0015007Y0514722D01*
X0015028Y0514879D01*
X0015054Y0515035D01*
X0015084Y0515191D01*
X0015117Y0515346D01*
X0015155Y0515499D01*
X0015196Y0515652D01*
X0015241Y0515804D01*
X0015290Y0515955D01*
X0015343Y0516104D01*
X0015399Y0516252D01*
X0015459Y0516398D01*
X0015523Y0516543D01*
X0015591Y0516686D01*
X0015662Y0516828D01*
X0015736Y0516968D01*
X0015814Y0517105D01*
X0015896Y0517241D01*
X0015980Y0517375D01*
X0016069Y0517506D01*
X0016160Y0517635D01*
X0016255Y0517762D01*
X0016352Y0517887D01*
X0016453Y0518009D01*
X0016557Y0518128D01*
X0016664Y0518245D01*
X0016774Y0518359D01*
X0016887Y0518470D01*
X0017002Y0518579D01*
X0017120Y0518684D01*
X0017241Y0518786D01*
X0017364Y0518886D01*
X0017490Y0518982D01*
X0017618Y0519075D01*
X0017748Y0519165D01*
X0017881Y0519251D01*
X0018016Y0519335D01*
X0018152Y0519414D01*
X0018291Y0519491D01*
X0018432Y0519563D01*
X0018574Y0519633D01*
X0018718Y0519698D01*
X0018864Y0519760D01*
X0019011Y0519818D01*
X0019160Y0519873D01*
X0019310Y0519924D01*
X0019461Y0519971D01*
X0019613Y0520014D01*
X0019766Y0520053D01*
X0019921Y0520089D01*
X0020076Y0520120D01*
X0020232Y0520148D01*
X0020388Y0520172D01*
X0020545Y0520192D01*
X0020703Y0520208D01*
X0020860Y0520220D01*
X0021019Y0520228D01*
X0021177Y0520232D01*
X0021335Y0520232D01*
X0021493Y0520228D01*
X0021652Y0520220D01*
X0021809Y0520208D01*
X0021967Y0520192D01*
X0022124Y0520172D01*
X0022280Y0520148D01*
X0022436Y0520120D01*
X0022591Y0520089D01*
X0022746Y0520053D01*
X0022899Y0520014D01*
X0023051Y0519971D01*
X0023202Y0519924D01*
X0023352Y0519873D01*
X0023501Y0519818D01*
X0023648Y0519760D01*
X0023794Y0519698D01*
X0023938Y0519633D01*
X0024080Y0519563D01*
X0024221Y0519491D01*
X0024360Y0519414D01*
X0024496Y0519335D01*
X0024631Y0519251D01*
X0024764Y0519165D01*
X0024894Y0519075D01*
X0025022Y0518982D01*
X0025148Y0518886D01*
X0025271Y0518786D01*
X0025392Y0518684D01*
X0025510Y0518579D01*
X0025625Y0518470D01*
X0025738Y0518359D01*
X0025848Y0518245D01*
X0025955Y0518128D01*
X0026059Y0518009D01*
X0026160Y0517887D01*
X0026257Y0517762D01*
X0026352Y0517635D01*
X0026443Y0517506D01*
X0026532Y0517375D01*
X0026616Y0517241D01*
X0026698Y0517105D01*
X0026776Y0516968D01*
X0026850Y0516828D01*
X0026921Y0516686D01*
X0026989Y0516543D01*
X0027053Y0516398D01*
X0027113Y0516252D01*
X0027169Y0516104D01*
X0027222Y0515955D01*
X0027271Y0515804D01*
X0027316Y0515652D01*
X0027357Y0515499D01*
X0027395Y0515346D01*
X0027428Y0515191D01*
X0027458Y0515035D01*
X0027484Y0514879D01*
X0027505Y0514722D01*
X0027523Y0514565D01*
X0027537Y0514407D01*
X0027547Y0514249D01*
X0027553Y0514091D01*
X0027555Y0513933D01*
X0027553Y0513775D01*
X0027547Y0513617D01*
X0027537Y0513459D01*
X0027523Y0513301D01*
X0027505Y0513144D01*
X0027484Y0512987D01*
X0027458Y0512831D01*
X0027428Y0512675D01*
X0027395Y0512520D01*
X0027357Y0512367D01*
X0027316Y0512214D01*
X0027271Y0512062D01*
X0027222Y0511911D01*
X0027169Y0511762D01*
X0027113Y0511614D01*
X0027053Y0511468D01*
X0026989Y0511323D01*
X0026921Y0511180D01*
X0026850Y0511038D01*
X0026776Y0510898D01*
X0026698Y0510761D01*
X0026616Y0510625D01*
X0026532Y0510491D01*
X0026443Y0510360D01*
X0026352Y0510231D01*
X0026257Y0510104D01*
X0026160Y0509979D01*
X0026059Y0509857D01*
X0025955Y0509738D01*
X0025848Y0509621D01*
X0025738Y0509507D01*
X0025625Y0509396D01*
X0025510Y0509287D01*
X0025392Y0509182D01*
X0025271Y0509080D01*
X0025148Y0508980D01*
X0025022Y0508884D01*
X0024894Y0508791D01*
X0024764Y0508701D01*
X0024631Y0508615D01*
X0024496Y0508531D01*
X0024360Y0508452D01*
X0024221Y0508375D01*
X0024080Y0508303D01*
X0023938Y0508233D01*
X0023794Y0508168D01*
X0023648Y0508106D01*
X0023501Y0508048D01*
X0023352Y0507993D01*
X0023202Y0507942D01*
X0023051Y0507895D01*
X0022899Y0507852D01*
X0022746Y0507813D01*
X0022591Y0507777D01*
X0022436Y0507746D01*
X0022280Y0507718D01*
X0022124Y0507694D01*
X0021967Y0507674D01*
X0021809Y0507658D01*
X0021652Y0507646D01*
X0021493Y0507638D01*
X0021335Y0507634D01*
X0021177Y0507634D01*
X0021019Y0507638D01*
X0020860Y0507646D01*
X0020703Y0507658D01*
X0020545Y0507674D01*
X0020388Y0507694D01*
X0020232Y0507718D01*
X0020076Y0507746D01*
X0019921Y0507777D01*
X0019766Y0507813D01*
X0019613Y0507852D01*
X0019461Y0507895D01*
X0019310Y0507942D01*
X0019160Y0507993D01*
X0019011Y0508048D01*
X0018864Y0508106D01*
X0018718Y0508168D01*
X0018574Y0508233D01*
X0018432Y0508303D01*
X0018291Y0508375D01*
X0018152Y0508452D01*
X0018016Y0508531D01*
X0017881Y0508615D01*
X0017748Y0508701D01*
X0017618Y0508791D01*
X0017490Y0508884D01*
X0017364Y0508980D01*
X0017241Y0509080D01*
X0017120Y0509182D01*
X0017002Y0509287D01*
X0016887Y0509396D01*
X0016774Y0509507D01*
X0016664Y0509621D01*
X0016557Y0509738D01*
X0016453Y0509857D01*
X0016352Y0509979D01*
X0016255Y0510104D01*
X0016160Y0510231D01*
X0016069Y0510360D01*
X0015980Y0510491D01*
X0015896Y0510625D01*
X0015814Y0510761D01*
X0015736Y0510898D01*
X0015662Y0511038D01*
X0015591Y0511180D01*
X0015523Y0511323D01*
X0015459Y0511468D01*
X0015399Y0511614D01*
X0015343Y0511762D01*
X0015290Y0511911D01*
X0015241Y0512062D01*
X0015196Y0512214D01*
X0015155Y0512367D01*
X0015117Y0512520D01*
X0015084Y0512675D01*
X0015054Y0512831D01*
X0015028Y0512987D01*
X0015007Y0513144D01*
X0014989Y0513301D01*
X0014975Y0513459D01*
X0014965Y0513617D01*
X0014959Y0513775D01*
X0014957Y0513933D01*
X0014957Y0653933D02*
X0014959Y0654091D01*
X0014965Y0654249D01*
X0014975Y0654407D01*
X0014989Y0654565D01*
X0015007Y0654722D01*
X0015028Y0654879D01*
X0015054Y0655035D01*
X0015084Y0655191D01*
X0015117Y0655346D01*
X0015155Y0655499D01*
X0015196Y0655652D01*
X0015241Y0655804D01*
X0015290Y0655955D01*
X0015343Y0656104D01*
X0015399Y0656252D01*
X0015459Y0656398D01*
X0015523Y0656543D01*
X0015591Y0656686D01*
X0015662Y0656828D01*
X0015736Y0656968D01*
X0015814Y0657105D01*
X0015896Y0657241D01*
X0015980Y0657375D01*
X0016069Y0657506D01*
X0016160Y0657635D01*
X0016255Y0657762D01*
X0016352Y0657887D01*
X0016453Y0658009D01*
X0016557Y0658128D01*
X0016664Y0658245D01*
X0016774Y0658359D01*
X0016887Y0658470D01*
X0017002Y0658579D01*
X0017120Y0658684D01*
X0017241Y0658786D01*
X0017364Y0658886D01*
X0017490Y0658982D01*
X0017618Y0659075D01*
X0017748Y0659165D01*
X0017881Y0659251D01*
X0018016Y0659335D01*
X0018152Y0659414D01*
X0018291Y0659491D01*
X0018432Y0659563D01*
X0018574Y0659633D01*
X0018718Y0659698D01*
X0018864Y0659760D01*
X0019011Y0659818D01*
X0019160Y0659873D01*
X0019310Y0659924D01*
X0019461Y0659971D01*
X0019613Y0660014D01*
X0019766Y0660053D01*
X0019921Y0660089D01*
X0020076Y0660120D01*
X0020232Y0660148D01*
X0020388Y0660172D01*
X0020545Y0660192D01*
X0020703Y0660208D01*
X0020860Y0660220D01*
X0021019Y0660228D01*
X0021177Y0660232D01*
X0021335Y0660232D01*
X0021493Y0660228D01*
X0021652Y0660220D01*
X0021809Y0660208D01*
X0021967Y0660192D01*
X0022124Y0660172D01*
X0022280Y0660148D01*
X0022436Y0660120D01*
X0022591Y0660089D01*
X0022746Y0660053D01*
X0022899Y0660014D01*
X0023051Y0659971D01*
X0023202Y0659924D01*
X0023352Y0659873D01*
X0023501Y0659818D01*
X0023648Y0659760D01*
X0023794Y0659698D01*
X0023938Y0659633D01*
X0024080Y0659563D01*
X0024221Y0659491D01*
X0024360Y0659414D01*
X0024496Y0659335D01*
X0024631Y0659251D01*
X0024764Y0659165D01*
X0024894Y0659075D01*
X0025022Y0658982D01*
X0025148Y0658886D01*
X0025271Y0658786D01*
X0025392Y0658684D01*
X0025510Y0658579D01*
X0025625Y0658470D01*
X0025738Y0658359D01*
X0025848Y0658245D01*
X0025955Y0658128D01*
X0026059Y0658009D01*
X0026160Y0657887D01*
X0026257Y0657762D01*
X0026352Y0657635D01*
X0026443Y0657506D01*
X0026532Y0657375D01*
X0026616Y0657241D01*
X0026698Y0657105D01*
X0026776Y0656968D01*
X0026850Y0656828D01*
X0026921Y0656686D01*
X0026989Y0656543D01*
X0027053Y0656398D01*
X0027113Y0656252D01*
X0027169Y0656104D01*
X0027222Y0655955D01*
X0027271Y0655804D01*
X0027316Y0655652D01*
X0027357Y0655499D01*
X0027395Y0655346D01*
X0027428Y0655191D01*
X0027458Y0655035D01*
X0027484Y0654879D01*
X0027505Y0654722D01*
X0027523Y0654565D01*
X0027537Y0654407D01*
X0027547Y0654249D01*
X0027553Y0654091D01*
X0027555Y0653933D01*
X0027553Y0653775D01*
X0027547Y0653617D01*
X0027537Y0653459D01*
X0027523Y0653301D01*
X0027505Y0653144D01*
X0027484Y0652987D01*
X0027458Y0652831D01*
X0027428Y0652675D01*
X0027395Y0652520D01*
X0027357Y0652367D01*
X0027316Y0652214D01*
X0027271Y0652062D01*
X0027222Y0651911D01*
X0027169Y0651762D01*
X0027113Y0651614D01*
X0027053Y0651468D01*
X0026989Y0651323D01*
X0026921Y0651180D01*
X0026850Y0651038D01*
X0026776Y0650898D01*
X0026698Y0650761D01*
X0026616Y0650625D01*
X0026532Y0650491D01*
X0026443Y0650360D01*
X0026352Y0650231D01*
X0026257Y0650104D01*
X0026160Y0649979D01*
X0026059Y0649857D01*
X0025955Y0649738D01*
X0025848Y0649621D01*
X0025738Y0649507D01*
X0025625Y0649396D01*
X0025510Y0649287D01*
X0025392Y0649182D01*
X0025271Y0649080D01*
X0025148Y0648980D01*
X0025022Y0648884D01*
X0024894Y0648791D01*
X0024764Y0648701D01*
X0024631Y0648615D01*
X0024496Y0648531D01*
X0024360Y0648452D01*
X0024221Y0648375D01*
X0024080Y0648303D01*
X0023938Y0648233D01*
X0023794Y0648168D01*
X0023648Y0648106D01*
X0023501Y0648048D01*
X0023352Y0647993D01*
X0023202Y0647942D01*
X0023051Y0647895D01*
X0022899Y0647852D01*
X0022746Y0647813D01*
X0022591Y0647777D01*
X0022436Y0647746D01*
X0022280Y0647718D01*
X0022124Y0647694D01*
X0021967Y0647674D01*
X0021809Y0647658D01*
X0021652Y0647646D01*
X0021493Y0647638D01*
X0021335Y0647634D01*
X0021177Y0647634D01*
X0021019Y0647638D01*
X0020860Y0647646D01*
X0020703Y0647658D01*
X0020545Y0647674D01*
X0020388Y0647694D01*
X0020232Y0647718D01*
X0020076Y0647746D01*
X0019921Y0647777D01*
X0019766Y0647813D01*
X0019613Y0647852D01*
X0019461Y0647895D01*
X0019310Y0647942D01*
X0019160Y0647993D01*
X0019011Y0648048D01*
X0018864Y0648106D01*
X0018718Y0648168D01*
X0018574Y0648233D01*
X0018432Y0648303D01*
X0018291Y0648375D01*
X0018152Y0648452D01*
X0018016Y0648531D01*
X0017881Y0648615D01*
X0017748Y0648701D01*
X0017618Y0648791D01*
X0017490Y0648884D01*
X0017364Y0648980D01*
X0017241Y0649080D01*
X0017120Y0649182D01*
X0017002Y0649287D01*
X0016887Y0649396D01*
X0016774Y0649507D01*
X0016664Y0649621D01*
X0016557Y0649738D01*
X0016453Y0649857D01*
X0016352Y0649979D01*
X0016255Y0650104D01*
X0016160Y0650231D01*
X0016069Y0650360D01*
X0015980Y0650491D01*
X0015896Y0650625D01*
X0015814Y0650761D01*
X0015736Y0650898D01*
X0015662Y0651038D01*
X0015591Y0651180D01*
X0015523Y0651323D01*
X0015459Y0651468D01*
X0015399Y0651614D01*
X0015343Y0651762D01*
X0015290Y0651911D01*
X0015241Y0652062D01*
X0015196Y0652214D01*
X0015155Y0652367D01*
X0015117Y0652520D01*
X0015084Y0652675D01*
X0015054Y0652831D01*
X0015028Y0652987D01*
X0015007Y0653144D01*
X0014989Y0653301D01*
X0014975Y0653459D01*
X0014965Y0653617D01*
X0014959Y0653775D01*
X0014957Y0653933D01*
X0369756Y0182933D02*
X0369758Y0183094D01*
X0369764Y0183254D01*
X0369774Y0183415D01*
X0369788Y0183575D01*
X0369806Y0183735D01*
X0369827Y0183894D01*
X0369853Y0184053D01*
X0369883Y0184211D01*
X0369916Y0184368D01*
X0369954Y0184525D01*
X0369995Y0184680D01*
X0370040Y0184834D01*
X0370089Y0184987D01*
X0370142Y0185139D01*
X0370198Y0185290D01*
X0370259Y0185439D01*
X0370322Y0185587D01*
X0370390Y0185733D01*
X0370461Y0185877D01*
X0370535Y0186019D01*
X0370613Y0186160D01*
X0370695Y0186298D01*
X0370780Y0186435D01*
X0370868Y0186569D01*
X0370960Y0186701D01*
X0371055Y0186831D01*
X0371153Y0186959D01*
X0371254Y0187084D01*
X0371358Y0187206D01*
X0371465Y0187326D01*
X0371575Y0187443D01*
X0371688Y0187558D01*
X0371804Y0187669D01*
X0371923Y0187778D01*
X0372044Y0187883D01*
X0372168Y0187986D01*
X0372294Y0188086D01*
X0372422Y0188182D01*
X0372553Y0188275D01*
X0372687Y0188365D01*
X0372822Y0188452D01*
X0372960Y0188535D01*
X0373099Y0188615D01*
X0373241Y0188691D01*
X0373384Y0188764D01*
X0373529Y0188833D01*
X0373676Y0188899D01*
X0373824Y0188961D01*
X0373974Y0189019D01*
X0374125Y0189074D01*
X0374278Y0189125D01*
X0374432Y0189172D01*
X0374587Y0189215D01*
X0374743Y0189254D01*
X0374899Y0189290D01*
X0375057Y0189321D01*
X0375215Y0189349D01*
X0375374Y0189373D01*
X0375534Y0189393D01*
X0375694Y0189409D01*
X0375854Y0189421D01*
X0376015Y0189429D01*
X0376176Y0189433D01*
X0376336Y0189433D01*
X0376497Y0189429D01*
X0376658Y0189421D01*
X0376818Y0189409D01*
X0376978Y0189393D01*
X0377138Y0189373D01*
X0377297Y0189349D01*
X0377455Y0189321D01*
X0377613Y0189290D01*
X0377769Y0189254D01*
X0377925Y0189215D01*
X0378080Y0189172D01*
X0378234Y0189125D01*
X0378387Y0189074D01*
X0378538Y0189019D01*
X0378688Y0188961D01*
X0378836Y0188899D01*
X0378983Y0188833D01*
X0379128Y0188764D01*
X0379271Y0188691D01*
X0379413Y0188615D01*
X0379552Y0188535D01*
X0379690Y0188452D01*
X0379825Y0188365D01*
X0379959Y0188275D01*
X0380090Y0188182D01*
X0380218Y0188086D01*
X0380344Y0187986D01*
X0380468Y0187883D01*
X0380589Y0187778D01*
X0380708Y0187669D01*
X0380824Y0187558D01*
X0380937Y0187443D01*
X0381047Y0187326D01*
X0381154Y0187206D01*
X0381258Y0187084D01*
X0381359Y0186959D01*
X0381457Y0186831D01*
X0381552Y0186701D01*
X0381644Y0186569D01*
X0381732Y0186435D01*
X0381817Y0186298D01*
X0381899Y0186160D01*
X0381977Y0186019D01*
X0382051Y0185877D01*
X0382122Y0185733D01*
X0382190Y0185587D01*
X0382253Y0185439D01*
X0382314Y0185290D01*
X0382370Y0185139D01*
X0382423Y0184987D01*
X0382472Y0184834D01*
X0382517Y0184680D01*
X0382558Y0184525D01*
X0382596Y0184368D01*
X0382629Y0184211D01*
X0382659Y0184053D01*
X0382685Y0183894D01*
X0382706Y0183735D01*
X0382724Y0183575D01*
X0382738Y0183415D01*
X0382748Y0183254D01*
X0382754Y0183094D01*
X0382756Y0182933D01*
X0382754Y0182772D01*
X0382748Y0182612D01*
X0382738Y0182451D01*
X0382724Y0182291D01*
X0382706Y0182131D01*
X0382685Y0181972D01*
X0382659Y0181813D01*
X0382629Y0181655D01*
X0382596Y0181498D01*
X0382558Y0181341D01*
X0382517Y0181186D01*
X0382472Y0181032D01*
X0382423Y0180879D01*
X0382370Y0180727D01*
X0382314Y0180576D01*
X0382253Y0180427D01*
X0382190Y0180279D01*
X0382122Y0180133D01*
X0382051Y0179989D01*
X0381977Y0179847D01*
X0381899Y0179706D01*
X0381817Y0179568D01*
X0381732Y0179431D01*
X0381644Y0179297D01*
X0381552Y0179165D01*
X0381457Y0179035D01*
X0381359Y0178907D01*
X0381258Y0178782D01*
X0381154Y0178660D01*
X0381047Y0178540D01*
X0380937Y0178423D01*
X0380824Y0178308D01*
X0380708Y0178197D01*
X0380589Y0178088D01*
X0380468Y0177983D01*
X0380344Y0177880D01*
X0380218Y0177780D01*
X0380090Y0177684D01*
X0379959Y0177591D01*
X0379825Y0177501D01*
X0379690Y0177414D01*
X0379552Y0177331D01*
X0379413Y0177251D01*
X0379271Y0177175D01*
X0379128Y0177102D01*
X0378983Y0177033D01*
X0378836Y0176967D01*
X0378688Y0176905D01*
X0378538Y0176847D01*
X0378387Y0176792D01*
X0378234Y0176741D01*
X0378080Y0176694D01*
X0377925Y0176651D01*
X0377769Y0176612D01*
X0377613Y0176576D01*
X0377455Y0176545D01*
X0377297Y0176517D01*
X0377138Y0176493D01*
X0376978Y0176473D01*
X0376818Y0176457D01*
X0376658Y0176445D01*
X0376497Y0176437D01*
X0376336Y0176433D01*
X0376176Y0176433D01*
X0376015Y0176437D01*
X0375854Y0176445D01*
X0375694Y0176457D01*
X0375534Y0176473D01*
X0375374Y0176493D01*
X0375215Y0176517D01*
X0375057Y0176545D01*
X0374899Y0176576D01*
X0374743Y0176612D01*
X0374587Y0176651D01*
X0374432Y0176694D01*
X0374278Y0176741D01*
X0374125Y0176792D01*
X0373974Y0176847D01*
X0373824Y0176905D01*
X0373676Y0176967D01*
X0373529Y0177033D01*
X0373384Y0177102D01*
X0373241Y0177175D01*
X0373099Y0177251D01*
X0372960Y0177331D01*
X0372822Y0177414D01*
X0372687Y0177501D01*
X0372553Y0177591D01*
X0372422Y0177684D01*
X0372294Y0177780D01*
X0372168Y0177880D01*
X0372044Y0177983D01*
X0371923Y0178088D01*
X0371804Y0178197D01*
X0371688Y0178308D01*
X0371575Y0178423D01*
X0371465Y0178540D01*
X0371358Y0178660D01*
X0371254Y0178782D01*
X0371153Y0178907D01*
X0371055Y0179035D01*
X0370960Y0179165D01*
X0370868Y0179297D01*
X0370780Y0179431D01*
X0370695Y0179568D01*
X0370613Y0179706D01*
X0370535Y0179847D01*
X0370461Y0179989D01*
X0370390Y0180133D01*
X0370322Y0180279D01*
X0370259Y0180427D01*
X0370198Y0180576D01*
X0370142Y0180727D01*
X0370089Y0180879D01*
X0370040Y0181032D01*
X0369995Y0181186D01*
X0369954Y0181341D01*
X0369916Y0181498D01*
X0369883Y0181655D01*
X0369853Y0181813D01*
X0369827Y0181972D01*
X0369806Y0182131D01*
X0369788Y0182291D01*
X0369774Y0182451D01*
X0369764Y0182612D01*
X0369758Y0182772D01*
X0369756Y0182933D01*
X0427457Y0223933D02*
X0427459Y0224091D01*
X0427465Y0224249D01*
X0427475Y0224407D01*
X0427489Y0224565D01*
X0427507Y0224722D01*
X0427528Y0224879D01*
X0427554Y0225035D01*
X0427584Y0225191D01*
X0427617Y0225346D01*
X0427655Y0225499D01*
X0427696Y0225652D01*
X0427741Y0225804D01*
X0427790Y0225955D01*
X0427843Y0226104D01*
X0427899Y0226252D01*
X0427959Y0226398D01*
X0428023Y0226543D01*
X0428091Y0226686D01*
X0428162Y0226828D01*
X0428236Y0226968D01*
X0428314Y0227105D01*
X0428396Y0227241D01*
X0428480Y0227375D01*
X0428569Y0227506D01*
X0428660Y0227635D01*
X0428755Y0227762D01*
X0428852Y0227887D01*
X0428953Y0228009D01*
X0429057Y0228128D01*
X0429164Y0228245D01*
X0429274Y0228359D01*
X0429387Y0228470D01*
X0429502Y0228579D01*
X0429620Y0228684D01*
X0429741Y0228786D01*
X0429864Y0228886D01*
X0429990Y0228982D01*
X0430118Y0229075D01*
X0430248Y0229165D01*
X0430381Y0229251D01*
X0430516Y0229335D01*
X0430652Y0229414D01*
X0430791Y0229491D01*
X0430932Y0229563D01*
X0431074Y0229633D01*
X0431218Y0229698D01*
X0431364Y0229760D01*
X0431511Y0229818D01*
X0431660Y0229873D01*
X0431810Y0229924D01*
X0431961Y0229971D01*
X0432113Y0230014D01*
X0432266Y0230053D01*
X0432421Y0230089D01*
X0432576Y0230120D01*
X0432732Y0230148D01*
X0432888Y0230172D01*
X0433045Y0230192D01*
X0433203Y0230208D01*
X0433360Y0230220D01*
X0433519Y0230228D01*
X0433677Y0230232D01*
X0433835Y0230232D01*
X0433993Y0230228D01*
X0434152Y0230220D01*
X0434309Y0230208D01*
X0434467Y0230192D01*
X0434624Y0230172D01*
X0434780Y0230148D01*
X0434936Y0230120D01*
X0435091Y0230089D01*
X0435246Y0230053D01*
X0435399Y0230014D01*
X0435551Y0229971D01*
X0435702Y0229924D01*
X0435852Y0229873D01*
X0436001Y0229818D01*
X0436148Y0229760D01*
X0436294Y0229698D01*
X0436438Y0229633D01*
X0436580Y0229563D01*
X0436721Y0229491D01*
X0436860Y0229414D01*
X0436996Y0229335D01*
X0437131Y0229251D01*
X0437264Y0229165D01*
X0437394Y0229075D01*
X0437522Y0228982D01*
X0437648Y0228886D01*
X0437771Y0228786D01*
X0437892Y0228684D01*
X0438010Y0228579D01*
X0438125Y0228470D01*
X0438238Y0228359D01*
X0438348Y0228245D01*
X0438455Y0228128D01*
X0438559Y0228009D01*
X0438660Y0227887D01*
X0438757Y0227762D01*
X0438852Y0227635D01*
X0438943Y0227506D01*
X0439032Y0227375D01*
X0439116Y0227241D01*
X0439198Y0227105D01*
X0439276Y0226968D01*
X0439350Y0226828D01*
X0439421Y0226686D01*
X0439489Y0226543D01*
X0439553Y0226398D01*
X0439613Y0226252D01*
X0439669Y0226104D01*
X0439722Y0225955D01*
X0439771Y0225804D01*
X0439816Y0225652D01*
X0439857Y0225499D01*
X0439895Y0225346D01*
X0439928Y0225191D01*
X0439958Y0225035D01*
X0439984Y0224879D01*
X0440005Y0224722D01*
X0440023Y0224565D01*
X0440037Y0224407D01*
X0440047Y0224249D01*
X0440053Y0224091D01*
X0440055Y0223933D01*
X0440053Y0223775D01*
X0440047Y0223617D01*
X0440037Y0223459D01*
X0440023Y0223301D01*
X0440005Y0223144D01*
X0439984Y0222987D01*
X0439958Y0222831D01*
X0439928Y0222675D01*
X0439895Y0222520D01*
X0439857Y0222367D01*
X0439816Y0222214D01*
X0439771Y0222062D01*
X0439722Y0221911D01*
X0439669Y0221762D01*
X0439613Y0221614D01*
X0439553Y0221468D01*
X0439489Y0221323D01*
X0439421Y0221180D01*
X0439350Y0221038D01*
X0439276Y0220898D01*
X0439198Y0220761D01*
X0439116Y0220625D01*
X0439032Y0220491D01*
X0438943Y0220360D01*
X0438852Y0220231D01*
X0438757Y0220104D01*
X0438660Y0219979D01*
X0438559Y0219857D01*
X0438455Y0219738D01*
X0438348Y0219621D01*
X0438238Y0219507D01*
X0438125Y0219396D01*
X0438010Y0219287D01*
X0437892Y0219182D01*
X0437771Y0219080D01*
X0437648Y0218980D01*
X0437522Y0218884D01*
X0437394Y0218791D01*
X0437264Y0218701D01*
X0437131Y0218615D01*
X0436996Y0218531D01*
X0436860Y0218452D01*
X0436721Y0218375D01*
X0436580Y0218303D01*
X0436438Y0218233D01*
X0436294Y0218168D01*
X0436148Y0218106D01*
X0436001Y0218048D01*
X0435852Y0217993D01*
X0435702Y0217942D01*
X0435551Y0217895D01*
X0435399Y0217852D01*
X0435246Y0217813D01*
X0435091Y0217777D01*
X0434936Y0217746D01*
X0434780Y0217718D01*
X0434624Y0217694D01*
X0434467Y0217674D01*
X0434309Y0217658D01*
X0434152Y0217646D01*
X0433993Y0217638D01*
X0433835Y0217634D01*
X0433677Y0217634D01*
X0433519Y0217638D01*
X0433360Y0217646D01*
X0433203Y0217658D01*
X0433045Y0217674D01*
X0432888Y0217694D01*
X0432732Y0217718D01*
X0432576Y0217746D01*
X0432421Y0217777D01*
X0432266Y0217813D01*
X0432113Y0217852D01*
X0431961Y0217895D01*
X0431810Y0217942D01*
X0431660Y0217993D01*
X0431511Y0218048D01*
X0431364Y0218106D01*
X0431218Y0218168D01*
X0431074Y0218233D01*
X0430932Y0218303D01*
X0430791Y0218375D01*
X0430652Y0218452D01*
X0430516Y0218531D01*
X0430381Y0218615D01*
X0430248Y0218701D01*
X0430118Y0218791D01*
X0429990Y0218884D01*
X0429864Y0218980D01*
X0429741Y0219080D01*
X0429620Y0219182D01*
X0429502Y0219287D01*
X0429387Y0219396D01*
X0429274Y0219507D01*
X0429164Y0219621D01*
X0429057Y0219738D01*
X0428953Y0219857D01*
X0428852Y0219979D01*
X0428755Y0220104D01*
X0428660Y0220231D01*
X0428569Y0220360D01*
X0428480Y0220491D01*
X0428396Y0220625D01*
X0428314Y0220761D01*
X0428236Y0220898D01*
X0428162Y0221038D01*
X0428091Y0221180D01*
X0428023Y0221323D01*
X0427959Y0221468D01*
X0427899Y0221614D01*
X0427843Y0221762D01*
X0427790Y0221911D01*
X0427741Y0222062D01*
X0427696Y0222214D01*
X0427655Y0222367D01*
X0427617Y0222520D01*
X0427584Y0222675D01*
X0427554Y0222831D01*
X0427528Y0222987D01*
X0427507Y0223144D01*
X0427489Y0223301D01*
X0427475Y0223459D01*
X0427465Y0223617D01*
X0427459Y0223775D01*
X0427457Y0223933D01*
X0423756Y0328933D02*
X0423758Y0329094D01*
X0423764Y0329254D01*
X0423774Y0329415D01*
X0423788Y0329575D01*
X0423806Y0329735D01*
X0423827Y0329894D01*
X0423853Y0330053D01*
X0423883Y0330211D01*
X0423916Y0330368D01*
X0423954Y0330525D01*
X0423995Y0330680D01*
X0424040Y0330834D01*
X0424089Y0330987D01*
X0424142Y0331139D01*
X0424198Y0331290D01*
X0424259Y0331439D01*
X0424322Y0331587D01*
X0424390Y0331733D01*
X0424461Y0331877D01*
X0424535Y0332019D01*
X0424613Y0332160D01*
X0424695Y0332298D01*
X0424780Y0332435D01*
X0424868Y0332569D01*
X0424960Y0332701D01*
X0425055Y0332831D01*
X0425153Y0332959D01*
X0425254Y0333084D01*
X0425358Y0333206D01*
X0425465Y0333326D01*
X0425575Y0333443D01*
X0425688Y0333558D01*
X0425804Y0333669D01*
X0425923Y0333778D01*
X0426044Y0333883D01*
X0426168Y0333986D01*
X0426294Y0334086D01*
X0426422Y0334182D01*
X0426553Y0334275D01*
X0426687Y0334365D01*
X0426822Y0334452D01*
X0426960Y0334535D01*
X0427099Y0334615D01*
X0427241Y0334691D01*
X0427384Y0334764D01*
X0427529Y0334833D01*
X0427676Y0334899D01*
X0427824Y0334961D01*
X0427974Y0335019D01*
X0428125Y0335074D01*
X0428278Y0335125D01*
X0428432Y0335172D01*
X0428587Y0335215D01*
X0428743Y0335254D01*
X0428899Y0335290D01*
X0429057Y0335321D01*
X0429215Y0335349D01*
X0429374Y0335373D01*
X0429534Y0335393D01*
X0429694Y0335409D01*
X0429854Y0335421D01*
X0430015Y0335429D01*
X0430176Y0335433D01*
X0430336Y0335433D01*
X0430497Y0335429D01*
X0430658Y0335421D01*
X0430818Y0335409D01*
X0430978Y0335393D01*
X0431138Y0335373D01*
X0431297Y0335349D01*
X0431455Y0335321D01*
X0431613Y0335290D01*
X0431769Y0335254D01*
X0431925Y0335215D01*
X0432080Y0335172D01*
X0432234Y0335125D01*
X0432387Y0335074D01*
X0432538Y0335019D01*
X0432688Y0334961D01*
X0432836Y0334899D01*
X0432983Y0334833D01*
X0433128Y0334764D01*
X0433271Y0334691D01*
X0433413Y0334615D01*
X0433552Y0334535D01*
X0433690Y0334452D01*
X0433825Y0334365D01*
X0433959Y0334275D01*
X0434090Y0334182D01*
X0434218Y0334086D01*
X0434344Y0333986D01*
X0434468Y0333883D01*
X0434589Y0333778D01*
X0434708Y0333669D01*
X0434824Y0333558D01*
X0434937Y0333443D01*
X0435047Y0333326D01*
X0435154Y0333206D01*
X0435258Y0333084D01*
X0435359Y0332959D01*
X0435457Y0332831D01*
X0435552Y0332701D01*
X0435644Y0332569D01*
X0435732Y0332435D01*
X0435817Y0332298D01*
X0435899Y0332160D01*
X0435977Y0332019D01*
X0436051Y0331877D01*
X0436122Y0331733D01*
X0436190Y0331587D01*
X0436253Y0331439D01*
X0436314Y0331290D01*
X0436370Y0331139D01*
X0436423Y0330987D01*
X0436472Y0330834D01*
X0436517Y0330680D01*
X0436558Y0330525D01*
X0436596Y0330368D01*
X0436629Y0330211D01*
X0436659Y0330053D01*
X0436685Y0329894D01*
X0436706Y0329735D01*
X0436724Y0329575D01*
X0436738Y0329415D01*
X0436748Y0329254D01*
X0436754Y0329094D01*
X0436756Y0328933D01*
X0436754Y0328772D01*
X0436748Y0328612D01*
X0436738Y0328451D01*
X0436724Y0328291D01*
X0436706Y0328131D01*
X0436685Y0327972D01*
X0436659Y0327813D01*
X0436629Y0327655D01*
X0436596Y0327498D01*
X0436558Y0327341D01*
X0436517Y0327186D01*
X0436472Y0327032D01*
X0436423Y0326879D01*
X0436370Y0326727D01*
X0436314Y0326576D01*
X0436253Y0326427D01*
X0436190Y0326279D01*
X0436122Y0326133D01*
X0436051Y0325989D01*
X0435977Y0325847D01*
X0435899Y0325706D01*
X0435817Y0325568D01*
X0435732Y0325431D01*
X0435644Y0325297D01*
X0435552Y0325165D01*
X0435457Y0325035D01*
X0435359Y0324907D01*
X0435258Y0324782D01*
X0435154Y0324660D01*
X0435047Y0324540D01*
X0434937Y0324423D01*
X0434824Y0324308D01*
X0434708Y0324197D01*
X0434589Y0324088D01*
X0434468Y0323983D01*
X0434344Y0323880D01*
X0434218Y0323780D01*
X0434090Y0323684D01*
X0433959Y0323591D01*
X0433825Y0323501D01*
X0433690Y0323414D01*
X0433552Y0323331D01*
X0433413Y0323251D01*
X0433271Y0323175D01*
X0433128Y0323102D01*
X0432983Y0323033D01*
X0432836Y0322967D01*
X0432688Y0322905D01*
X0432538Y0322847D01*
X0432387Y0322792D01*
X0432234Y0322741D01*
X0432080Y0322694D01*
X0431925Y0322651D01*
X0431769Y0322612D01*
X0431613Y0322576D01*
X0431455Y0322545D01*
X0431297Y0322517D01*
X0431138Y0322493D01*
X0430978Y0322473D01*
X0430818Y0322457D01*
X0430658Y0322445D01*
X0430497Y0322437D01*
X0430336Y0322433D01*
X0430176Y0322433D01*
X0430015Y0322437D01*
X0429854Y0322445D01*
X0429694Y0322457D01*
X0429534Y0322473D01*
X0429374Y0322493D01*
X0429215Y0322517D01*
X0429057Y0322545D01*
X0428899Y0322576D01*
X0428743Y0322612D01*
X0428587Y0322651D01*
X0428432Y0322694D01*
X0428278Y0322741D01*
X0428125Y0322792D01*
X0427974Y0322847D01*
X0427824Y0322905D01*
X0427676Y0322967D01*
X0427529Y0323033D01*
X0427384Y0323102D01*
X0427241Y0323175D01*
X0427099Y0323251D01*
X0426960Y0323331D01*
X0426822Y0323414D01*
X0426687Y0323501D01*
X0426553Y0323591D01*
X0426422Y0323684D01*
X0426294Y0323780D01*
X0426168Y0323880D01*
X0426044Y0323983D01*
X0425923Y0324088D01*
X0425804Y0324197D01*
X0425688Y0324308D01*
X0425575Y0324423D01*
X0425465Y0324540D01*
X0425358Y0324660D01*
X0425254Y0324782D01*
X0425153Y0324907D01*
X0425055Y0325035D01*
X0424960Y0325165D01*
X0424868Y0325297D01*
X0424780Y0325431D01*
X0424695Y0325568D01*
X0424613Y0325706D01*
X0424535Y0325847D01*
X0424461Y0325989D01*
X0424390Y0326133D01*
X0424322Y0326279D01*
X0424259Y0326427D01*
X0424198Y0326576D01*
X0424142Y0326727D01*
X0424089Y0326879D01*
X0424040Y0327032D01*
X0423995Y0327186D01*
X0423954Y0327341D01*
X0423916Y0327498D01*
X0423883Y0327655D01*
X0423853Y0327813D01*
X0423827Y0327972D01*
X0423806Y0328131D01*
X0423788Y0328291D01*
X0423774Y0328451D01*
X0423764Y0328612D01*
X0423758Y0328772D01*
X0423756Y0328933D01*
X0427457Y0083933D02*
X0427459Y0084091D01*
X0427465Y0084249D01*
X0427475Y0084407D01*
X0427489Y0084565D01*
X0427507Y0084722D01*
X0427528Y0084879D01*
X0427554Y0085035D01*
X0427584Y0085191D01*
X0427617Y0085346D01*
X0427655Y0085499D01*
X0427696Y0085652D01*
X0427741Y0085804D01*
X0427790Y0085955D01*
X0427843Y0086104D01*
X0427899Y0086252D01*
X0427959Y0086398D01*
X0428023Y0086543D01*
X0428091Y0086686D01*
X0428162Y0086828D01*
X0428236Y0086968D01*
X0428314Y0087105D01*
X0428396Y0087241D01*
X0428480Y0087375D01*
X0428569Y0087506D01*
X0428660Y0087635D01*
X0428755Y0087762D01*
X0428852Y0087887D01*
X0428953Y0088009D01*
X0429057Y0088128D01*
X0429164Y0088245D01*
X0429274Y0088359D01*
X0429387Y0088470D01*
X0429502Y0088579D01*
X0429620Y0088684D01*
X0429741Y0088786D01*
X0429864Y0088886D01*
X0429990Y0088982D01*
X0430118Y0089075D01*
X0430248Y0089165D01*
X0430381Y0089251D01*
X0430516Y0089335D01*
X0430652Y0089414D01*
X0430791Y0089491D01*
X0430932Y0089563D01*
X0431074Y0089633D01*
X0431218Y0089698D01*
X0431364Y0089760D01*
X0431511Y0089818D01*
X0431660Y0089873D01*
X0431810Y0089924D01*
X0431961Y0089971D01*
X0432113Y0090014D01*
X0432266Y0090053D01*
X0432421Y0090089D01*
X0432576Y0090120D01*
X0432732Y0090148D01*
X0432888Y0090172D01*
X0433045Y0090192D01*
X0433203Y0090208D01*
X0433360Y0090220D01*
X0433519Y0090228D01*
X0433677Y0090232D01*
X0433835Y0090232D01*
X0433993Y0090228D01*
X0434152Y0090220D01*
X0434309Y0090208D01*
X0434467Y0090192D01*
X0434624Y0090172D01*
X0434780Y0090148D01*
X0434936Y0090120D01*
X0435091Y0090089D01*
X0435246Y0090053D01*
X0435399Y0090014D01*
X0435551Y0089971D01*
X0435702Y0089924D01*
X0435852Y0089873D01*
X0436001Y0089818D01*
X0436148Y0089760D01*
X0436294Y0089698D01*
X0436438Y0089633D01*
X0436580Y0089563D01*
X0436721Y0089491D01*
X0436860Y0089414D01*
X0436996Y0089335D01*
X0437131Y0089251D01*
X0437264Y0089165D01*
X0437394Y0089075D01*
X0437522Y0088982D01*
X0437648Y0088886D01*
X0437771Y0088786D01*
X0437892Y0088684D01*
X0438010Y0088579D01*
X0438125Y0088470D01*
X0438238Y0088359D01*
X0438348Y0088245D01*
X0438455Y0088128D01*
X0438559Y0088009D01*
X0438660Y0087887D01*
X0438757Y0087762D01*
X0438852Y0087635D01*
X0438943Y0087506D01*
X0439032Y0087375D01*
X0439116Y0087241D01*
X0439198Y0087105D01*
X0439276Y0086968D01*
X0439350Y0086828D01*
X0439421Y0086686D01*
X0439489Y0086543D01*
X0439553Y0086398D01*
X0439613Y0086252D01*
X0439669Y0086104D01*
X0439722Y0085955D01*
X0439771Y0085804D01*
X0439816Y0085652D01*
X0439857Y0085499D01*
X0439895Y0085346D01*
X0439928Y0085191D01*
X0439958Y0085035D01*
X0439984Y0084879D01*
X0440005Y0084722D01*
X0440023Y0084565D01*
X0440037Y0084407D01*
X0440047Y0084249D01*
X0440053Y0084091D01*
X0440055Y0083933D01*
X0440053Y0083775D01*
X0440047Y0083617D01*
X0440037Y0083459D01*
X0440023Y0083301D01*
X0440005Y0083144D01*
X0439984Y0082987D01*
X0439958Y0082831D01*
X0439928Y0082675D01*
X0439895Y0082520D01*
X0439857Y0082367D01*
X0439816Y0082214D01*
X0439771Y0082062D01*
X0439722Y0081911D01*
X0439669Y0081762D01*
X0439613Y0081614D01*
X0439553Y0081468D01*
X0439489Y0081323D01*
X0439421Y0081180D01*
X0439350Y0081038D01*
X0439276Y0080898D01*
X0439198Y0080761D01*
X0439116Y0080625D01*
X0439032Y0080491D01*
X0438943Y0080360D01*
X0438852Y0080231D01*
X0438757Y0080104D01*
X0438660Y0079979D01*
X0438559Y0079857D01*
X0438455Y0079738D01*
X0438348Y0079621D01*
X0438238Y0079507D01*
X0438125Y0079396D01*
X0438010Y0079287D01*
X0437892Y0079182D01*
X0437771Y0079080D01*
X0437648Y0078980D01*
X0437522Y0078884D01*
X0437394Y0078791D01*
X0437264Y0078701D01*
X0437131Y0078615D01*
X0436996Y0078531D01*
X0436860Y0078452D01*
X0436721Y0078375D01*
X0436580Y0078303D01*
X0436438Y0078233D01*
X0436294Y0078168D01*
X0436148Y0078106D01*
X0436001Y0078048D01*
X0435852Y0077993D01*
X0435702Y0077942D01*
X0435551Y0077895D01*
X0435399Y0077852D01*
X0435246Y0077813D01*
X0435091Y0077777D01*
X0434936Y0077746D01*
X0434780Y0077718D01*
X0434624Y0077694D01*
X0434467Y0077674D01*
X0434309Y0077658D01*
X0434152Y0077646D01*
X0433993Y0077638D01*
X0433835Y0077634D01*
X0433677Y0077634D01*
X0433519Y0077638D01*
X0433360Y0077646D01*
X0433203Y0077658D01*
X0433045Y0077674D01*
X0432888Y0077694D01*
X0432732Y0077718D01*
X0432576Y0077746D01*
X0432421Y0077777D01*
X0432266Y0077813D01*
X0432113Y0077852D01*
X0431961Y0077895D01*
X0431810Y0077942D01*
X0431660Y0077993D01*
X0431511Y0078048D01*
X0431364Y0078106D01*
X0431218Y0078168D01*
X0431074Y0078233D01*
X0430932Y0078303D01*
X0430791Y0078375D01*
X0430652Y0078452D01*
X0430516Y0078531D01*
X0430381Y0078615D01*
X0430248Y0078701D01*
X0430118Y0078791D01*
X0429990Y0078884D01*
X0429864Y0078980D01*
X0429741Y0079080D01*
X0429620Y0079182D01*
X0429502Y0079287D01*
X0429387Y0079396D01*
X0429274Y0079507D01*
X0429164Y0079621D01*
X0429057Y0079738D01*
X0428953Y0079857D01*
X0428852Y0079979D01*
X0428755Y0080104D01*
X0428660Y0080231D01*
X0428569Y0080360D01*
X0428480Y0080491D01*
X0428396Y0080625D01*
X0428314Y0080761D01*
X0428236Y0080898D01*
X0428162Y0081038D01*
X0428091Y0081180D01*
X0428023Y0081323D01*
X0427959Y0081468D01*
X0427899Y0081614D01*
X0427843Y0081762D01*
X0427790Y0081911D01*
X0427741Y0082062D01*
X0427696Y0082214D01*
X0427655Y0082367D01*
X0427617Y0082520D01*
X0427584Y0082675D01*
X0427554Y0082831D01*
X0427528Y0082987D01*
X0427507Y0083144D01*
X0427489Y0083301D01*
X0427475Y0083459D01*
X0427465Y0083617D01*
X0427459Y0083775D01*
X0427457Y0083933D01*
X0427457Y0653933D02*
X0427459Y0654091D01*
X0427465Y0654249D01*
X0427475Y0654407D01*
X0427489Y0654565D01*
X0427507Y0654722D01*
X0427528Y0654879D01*
X0427554Y0655035D01*
X0427584Y0655191D01*
X0427617Y0655346D01*
X0427655Y0655499D01*
X0427696Y0655652D01*
X0427741Y0655804D01*
X0427790Y0655955D01*
X0427843Y0656104D01*
X0427899Y0656252D01*
X0427959Y0656398D01*
X0428023Y0656543D01*
X0428091Y0656686D01*
X0428162Y0656828D01*
X0428236Y0656968D01*
X0428314Y0657105D01*
X0428396Y0657241D01*
X0428480Y0657375D01*
X0428569Y0657506D01*
X0428660Y0657635D01*
X0428755Y0657762D01*
X0428852Y0657887D01*
X0428953Y0658009D01*
X0429057Y0658128D01*
X0429164Y0658245D01*
X0429274Y0658359D01*
X0429387Y0658470D01*
X0429502Y0658579D01*
X0429620Y0658684D01*
X0429741Y0658786D01*
X0429864Y0658886D01*
X0429990Y0658982D01*
X0430118Y0659075D01*
X0430248Y0659165D01*
X0430381Y0659251D01*
X0430516Y0659335D01*
X0430652Y0659414D01*
X0430791Y0659491D01*
X0430932Y0659563D01*
X0431074Y0659633D01*
X0431218Y0659698D01*
X0431364Y0659760D01*
X0431511Y0659818D01*
X0431660Y0659873D01*
X0431810Y0659924D01*
X0431961Y0659971D01*
X0432113Y0660014D01*
X0432266Y0660053D01*
X0432421Y0660089D01*
X0432576Y0660120D01*
X0432732Y0660148D01*
X0432888Y0660172D01*
X0433045Y0660192D01*
X0433203Y0660208D01*
X0433360Y0660220D01*
X0433519Y0660228D01*
X0433677Y0660232D01*
X0433835Y0660232D01*
X0433993Y0660228D01*
X0434152Y0660220D01*
X0434309Y0660208D01*
X0434467Y0660192D01*
X0434624Y0660172D01*
X0434780Y0660148D01*
X0434936Y0660120D01*
X0435091Y0660089D01*
X0435246Y0660053D01*
X0435399Y0660014D01*
X0435551Y0659971D01*
X0435702Y0659924D01*
X0435852Y0659873D01*
X0436001Y0659818D01*
X0436148Y0659760D01*
X0436294Y0659698D01*
X0436438Y0659633D01*
X0436580Y0659563D01*
X0436721Y0659491D01*
X0436860Y0659414D01*
X0436996Y0659335D01*
X0437131Y0659251D01*
X0437264Y0659165D01*
X0437394Y0659075D01*
X0437522Y0658982D01*
X0437648Y0658886D01*
X0437771Y0658786D01*
X0437892Y0658684D01*
X0438010Y0658579D01*
X0438125Y0658470D01*
X0438238Y0658359D01*
X0438348Y0658245D01*
X0438455Y0658128D01*
X0438559Y0658009D01*
X0438660Y0657887D01*
X0438757Y0657762D01*
X0438852Y0657635D01*
X0438943Y0657506D01*
X0439032Y0657375D01*
X0439116Y0657241D01*
X0439198Y0657105D01*
X0439276Y0656968D01*
X0439350Y0656828D01*
X0439421Y0656686D01*
X0439489Y0656543D01*
X0439553Y0656398D01*
X0439613Y0656252D01*
X0439669Y0656104D01*
X0439722Y0655955D01*
X0439771Y0655804D01*
X0439816Y0655652D01*
X0439857Y0655499D01*
X0439895Y0655346D01*
X0439928Y0655191D01*
X0439958Y0655035D01*
X0439984Y0654879D01*
X0440005Y0654722D01*
X0440023Y0654565D01*
X0440037Y0654407D01*
X0440047Y0654249D01*
X0440053Y0654091D01*
X0440055Y0653933D01*
X0440053Y0653775D01*
X0440047Y0653617D01*
X0440037Y0653459D01*
X0440023Y0653301D01*
X0440005Y0653144D01*
X0439984Y0652987D01*
X0439958Y0652831D01*
X0439928Y0652675D01*
X0439895Y0652520D01*
X0439857Y0652367D01*
X0439816Y0652214D01*
X0439771Y0652062D01*
X0439722Y0651911D01*
X0439669Y0651762D01*
X0439613Y0651614D01*
X0439553Y0651468D01*
X0439489Y0651323D01*
X0439421Y0651180D01*
X0439350Y0651038D01*
X0439276Y0650898D01*
X0439198Y0650761D01*
X0439116Y0650625D01*
X0439032Y0650491D01*
X0438943Y0650360D01*
X0438852Y0650231D01*
X0438757Y0650104D01*
X0438660Y0649979D01*
X0438559Y0649857D01*
X0438455Y0649738D01*
X0438348Y0649621D01*
X0438238Y0649507D01*
X0438125Y0649396D01*
X0438010Y0649287D01*
X0437892Y0649182D01*
X0437771Y0649080D01*
X0437648Y0648980D01*
X0437522Y0648884D01*
X0437394Y0648791D01*
X0437264Y0648701D01*
X0437131Y0648615D01*
X0436996Y0648531D01*
X0436860Y0648452D01*
X0436721Y0648375D01*
X0436580Y0648303D01*
X0436438Y0648233D01*
X0436294Y0648168D01*
X0436148Y0648106D01*
X0436001Y0648048D01*
X0435852Y0647993D01*
X0435702Y0647942D01*
X0435551Y0647895D01*
X0435399Y0647852D01*
X0435246Y0647813D01*
X0435091Y0647777D01*
X0434936Y0647746D01*
X0434780Y0647718D01*
X0434624Y0647694D01*
X0434467Y0647674D01*
X0434309Y0647658D01*
X0434152Y0647646D01*
X0433993Y0647638D01*
X0433835Y0647634D01*
X0433677Y0647634D01*
X0433519Y0647638D01*
X0433360Y0647646D01*
X0433203Y0647658D01*
X0433045Y0647674D01*
X0432888Y0647694D01*
X0432732Y0647718D01*
X0432576Y0647746D01*
X0432421Y0647777D01*
X0432266Y0647813D01*
X0432113Y0647852D01*
X0431961Y0647895D01*
X0431810Y0647942D01*
X0431660Y0647993D01*
X0431511Y0648048D01*
X0431364Y0648106D01*
X0431218Y0648168D01*
X0431074Y0648233D01*
X0430932Y0648303D01*
X0430791Y0648375D01*
X0430652Y0648452D01*
X0430516Y0648531D01*
X0430381Y0648615D01*
X0430248Y0648701D01*
X0430118Y0648791D01*
X0429990Y0648884D01*
X0429864Y0648980D01*
X0429741Y0649080D01*
X0429620Y0649182D01*
X0429502Y0649287D01*
X0429387Y0649396D01*
X0429274Y0649507D01*
X0429164Y0649621D01*
X0429057Y0649738D01*
X0428953Y0649857D01*
X0428852Y0649979D01*
X0428755Y0650104D01*
X0428660Y0650231D01*
X0428569Y0650360D01*
X0428480Y0650491D01*
X0428396Y0650625D01*
X0428314Y0650761D01*
X0428236Y0650898D01*
X0428162Y0651038D01*
X0428091Y0651180D01*
X0428023Y0651323D01*
X0427959Y0651468D01*
X0427899Y0651614D01*
X0427843Y0651762D01*
X0427790Y0651911D01*
X0427741Y0652062D01*
X0427696Y0652214D01*
X0427655Y0652367D01*
X0427617Y0652520D01*
X0427584Y0652675D01*
X0427554Y0652831D01*
X0427528Y0652987D01*
X0427507Y0653144D01*
X0427489Y0653301D01*
X0427475Y0653459D01*
X0427465Y0653617D01*
X0427459Y0653775D01*
X0427457Y0653933D01*
D11*
X0120606Y0071889D02*
X0120606Y0064583D01*
X0115735Y0064583D01*
X0112687Y0064583D02*
X0111469Y0064583D01*
X0111469Y0065801D01*
X0112687Y0065801D01*
X0112687Y0064583D01*
X0108728Y0064583D02*
X0108728Y0071889D01*
X0105075Y0071889D01*
X0103857Y0070672D01*
X0103857Y0068236D01*
X0105075Y0067018D01*
X0108728Y0067018D01*
X0100809Y0065801D02*
X0099591Y0065801D01*
X0099591Y0064583D01*
X0100809Y0064583D01*
X0100809Y0065801D01*
X0096850Y0065801D02*
X0096850Y0070672D01*
X0095632Y0071889D01*
X0093197Y0071889D01*
X0091979Y0070672D01*
X0096850Y0065801D01*
X0095632Y0064583D01*
X0093197Y0064583D01*
X0091979Y0065801D01*
X0091979Y0070672D01*
X0088931Y0070672D02*
X0087713Y0071889D01*
X0085278Y0071889D01*
X0084060Y0070672D01*
X0084060Y0069454D01*
X0088931Y0064583D01*
X0084060Y0064583D01*
X0081012Y0064583D02*
X0076141Y0071889D01*
X0073093Y0070672D02*
X0071876Y0071889D01*
X0069440Y0071889D01*
X0068223Y0070672D01*
X0068223Y0069454D01*
X0073093Y0064583D01*
X0068223Y0064583D01*
X0065175Y0065801D02*
X0060304Y0070672D01*
X0060304Y0065801D01*
X0061521Y0064583D01*
X0063957Y0064583D01*
X0065175Y0065801D01*
X0065175Y0070672D01*
X0063957Y0071889D01*
X0061521Y0071889D01*
X0060304Y0070672D01*
X0057256Y0069454D02*
X0054820Y0071889D01*
X0054820Y0064583D01*
X0052385Y0064583D02*
X0057256Y0064583D01*
X0056242Y0056889D02*
X0055025Y0055672D01*
X0055025Y0050801D01*
X0056242Y0049583D01*
X0058678Y0049583D01*
X0059895Y0050801D01*
X0059895Y0055672D01*
X0058678Y0056889D01*
X0056242Y0056889D01*
X0062943Y0056889D02*
X0062943Y0049583D01*
X0067814Y0056889D01*
X0067814Y0049583D01*
X0070658Y0049583D02*
X0073093Y0049583D01*
X0071876Y0049583D02*
X0071876Y0056889D01*
X0073093Y0056889D02*
X0070658Y0056889D01*
X0076141Y0056889D02*
X0076141Y0050801D01*
X0077359Y0049583D01*
X0079794Y0049583D01*
X0081012Y0050801D01*
X0081012Y0056889D01*
X0084060Y0055672D02*
X0085278Y0056889D01*
X0088931Y0056889D01*
X0088931Y0049583D01*
X0085278Y0049583D01*
X0084060Y0050801D01*
X0084060Y0055672D01*
X0091979Y0054454D02*
X0091979Y0049583D01*
X0091979Y0053236D02*
X0096850Y0053236D01*
X0096850Y0054454D02*
X0096850Y0049583D01*
X0099898Y0052018D02*
X0099898Y0056889D01*
X0096850Y0054454D02*
X0094414Y0056889D01*
X0091979Y0054454D01*
X0099898Y0052018D02*
X0102333Y0049583D01*
X0104768Y0052018D01*
X0104768Y0056889D01*
X0107816Y0056889D02*
X0112687Y0052018D01*
X0111469Y0053236D02*
X0107816Y0049583D01*
X0112687Y0049583D02*
X0112687Y0056889D01*
X0115735Y0054454D02*
X0115735Y0049583D01*
X0115735Y0053236D02*
X0120606Y0053236D01*
X0120606Y0054454D02*
X0120606Y0049583D01*
X0120606Y0054454D02*
X0118170Y0056889D01*
X0115735Y0054454D01*
X0049337Y0065801D02*
X0048119Y0064583D01*
X0045684Y0064583D01*
X0044466Y0065801D01*
X0044466Y0067018D01*
X0045684Y0068236D01*
X0049337Y0068236D01*
X0049337Y0065801D01*
X0049337Y0068236D02*
X0046902Y0070672D01*
X0044466Y0071889D01*
D12*
X0026256Y0123933D03*
X0016256Y0188933D03*
X0066256Y0188933D03*
X0076256Y0123933D03*
X0066256Y0253933D03*
X0066256Y0318933D03*
X0016256Y0318933D03*
X0016256Y0253933D03*
X0041256Y0413933D03*
X0051256Y0413933D03*
X0061256Y0413933D03*
X0071256Y0413933D03*
X0081256Y0413933D03*
X0091256Y0413933D03*
X0101256Y0413933D03*
X0111256Y0413933D03*
X0111256Y0443933D03*
X0101256Y0443933D03*
X0091256Y0443933D03*
X0081256Y0443933D03*
X0071256Y0443933D03*
X0061256Y0443933D03*
X0051256Y0443933D03*
X0041256Y0443933D03*
X0106256Y0463933D03*
X0106256Y0473933D03*
X0116256Y0473933D03*
X0116256Y0463933D03*
X0126256Y0463933D03*
X0126256Y0473933D03*
X0126256Y0523933D03*
X0116256Y0523933D03*
X0106256Y0523933D03*
X0196256Y0548933D03*
X0206256Y0558933D03*
X0216256Y0568933D03*
X0246256Y0578933D03*
X0248756Y0598933D03*
X0266256Y0568933D03*
X0266256Y0558933D03*
X0256256Y0558933D03*
X0246256Y0548933D03*
X0276256Y0568933D03*
X0296256Y0578933D03*
X0298756Y0598933D03*
X0276256Y0518933D03*
X0266256Y0508933D03*
X0321256Y0408933D03*
X0336256Y0403933D03*
X0336256Y0393933D03*
X0351256Y0408933D03*
X0351256Y0358933D03*
X0331256Y0348933D03*
X0321256Y0358933D03*
X0321256Y0336433D03*
X0331256Y0323933D03*
X0306256Y0393933D03*
X0306256Y0403933D03*
X0271256Y0348933D03*
X0271256Y0336433D03*
X0271256Y0323933D03*
X0271256Y0308933D03*
X0271256Y0273933D03*
X0271256Y0238933D03*
X0271256Y0203933D03*
X0221256Y0203933D03*
X0206256Y0203933D03*
X0206256Y0213933D03*
X0206256Y0228933D03*
X0206256Y0238933D03*
X0206256Y0248933D03*
X0206256Y0263933D03*
X0206256Y0273933D03*
X0206256Y0283933D03*
X0206256Y0298933D03*
X0206256Y0308933D03*
X0206256Y0318933D03*
X0221256Y0308933D03*
X0221256Y0273933D03*
X0221256Y0238933D03*
X0206256Y0193933D03*
X0321256Y0198933D03*
X0331256Y0198933D03*
X0406256Y0118933D03*
X0406256Y0068933D03*
X0396256Y0433933D03*
X0421256Y0433933D03*
X0421256Y0483933D03*
X0441256Y0493933D03*
X0396256Y0483933D03*
X0391256Y0493933D03*
D13*
X0361256Y0338933D03*
X0361256Y0328933D03*
X0361256Y0318933D03*
X0366256Y0113933D03*
X0376256Y0113933D03*
X0386256Y0113933D03*
X0176256Y0143933D03*
X0176256Y0153933D03*
X0176256Y0163933D03*
X0176256Y0208933D03*
X0176256Y0218933D03*
X0176256Y0228933D03*
X0176256Y0273933D03*
X0176256Y0283933D03*
X0176256Y0293933D03*
X0176256Y0338933D03*
X0176256Y0348933D03*
X0176256Y0358933D03*
D14*
X0076256Y0358933D03*
X0076256Y0338933D03*
X0076256Y0293933D03*
X0076256Y0273933D03*
X0076256Y0228933D03*
X0076256Y0208933D03*
X0076256Y0163933D03*
X0076256Y0143933D03*
X0016256Y0143933D03*
X0016256Y0163933D03*
X0016256Y0208933D03*
X0016256Y0228933D03*
X0016256Y0273933D03*
X0016256Y0293933D03*
X0016256Y0338933D03*
X0016256Y0358933D03*
D15*
X0148913Y0078933D03*
X0168598Y0078933D03*
X0188303Y0078933D03*
X0207988Y0078933D03*
X0227673Y0078933D03*
X0247358Y0078933D03*
X0267043Y0078933D03*
X0286728Y0078933D03*
X0306413Y0078933D03*
X0326098Y0078933D03*
X0346728Y0078933D03*
X0366413Y0078933D03*
X0386098Y0078933D03*
D16*
X0331256Y0215193D03*
X0331256Y0222673D03*
X0101256Y0395193D03*
X0101256Y0402673D03*
X0091256Y0402673D03*
X0091256Y0395193D03*
X0081256Y0395193D03*
X0081256Y0402673D03*
X0071256Y0402673D03*
X0071256Y0395193D03*
D17*
X0071256Y0423028D03*
X0081256Y0423028D03*
X0091256Y0423028D03*
X0101256Y0423028D03*
X0111256Y0423028D03*
X0111256Y0434839D03*
X0101256Y0434839D03*
X0091256Y0434839D03*
X0081256Y0434839D03*
X0071256Y0434839D03*
X0306256Y0586778D03*
X0306256Y0598589D03*
X0373756Y0339839D03*
X0373756Y0328028D03*
X0385006Y0328589D03*
X0385006Y0316778D03*
D18*
X0311256Y0173933D03*
X0281256Y0173933D03*
X0251256Y0173933D03*
X0221256Y0173933D03*
X0221256Y0113933D03*
X0251256Y0113933D03*
X0281256Y0113933D03*
X0311256Y0113933D03*
D19*
X0365350Y0123933D03*
X0377161Y0123933D03*
X0375350Y0138933D03*
X0387161Y0138933D03*
X0147161Y0443933D03*
X0135350Y0443933D03*
X0127161Y0453933D03*
X0115350Y0453933D03*
X0092161Y0453933D03*
X0080350Y0453933D03*
D20*
X0321256Y0233933D03*
X0341256Y0233933D03*
X0396256Y0398933D03*
X0416256Y0398933D03*
D21*
X0411197Y0516738D03*
X0411197Y0526738D03*
X0401197Y0526738D03*
X0401197Y0516738D03*
X0391197Y0516738D03*
X0391197Y0526738D03*
X0381197Y0526738D03*
X0381197Y0516738D03*
D22*
X0381256Y0453933D03*
X0381256Y0443933D03*
X0381256Y0433933D03*
X0381256Y0423933D03*
X0371256Y0423933D03*
X0371256Y0433933D03*
X0371256Y0443933D03*
X0371256Y0453933D03*
X0091256Y0638933D03*
X0081256Y0638933D03*
X0071256Y0638933D03*
X0061256Y0638933D03*
D23*
X0156256Y0563933D03*
X0156256Y0553933D03*
X0156256Y0543933D03*
X0156256Y0533933D03*
X0156256Y0523933D03*
X0156256Y0513933D03*
X0156256Y0503933D03*
X0156256Y0493933D03*
X0156256Y0473933D03*
X0156256Y0463933D03*
X0156256Y0453933D03*
X0156256Y0443933D03*
X0156256Y0433933D03*
X0156256Y0423933D03*
X0346256Y0423933D03*
X0346256Y0433933D03*
X0346256Y0443933D03*
X0346256Y0453933D03*
X0346256Y0463933D03*
X0346256Y0473933D03*
X0346256Y0483933D03*
X0346256Y0493933D03*
X0346256Y0509933D03*
X0346256Y0519933D03*
X0346256Y0529933D03*
X0346256Y0539933D03*
X0346256Y0549933D03*
X0346256Y0559933D03*
X0346256Y0569933D03*
X0346256Y0579933D03*
X0346256Y0589933D03*
X0346256Y0599933D03*
D24*
X0397516Y0503933D03*
X0404996Y0503933D03*
D25*
X0259248Y0650744D03*
X0254917Y0650744D03*
X0250587Y0650744D03*
X0246256Y0650744D03*
X0241925Y0650744D03*
X0237594Y0650744D03*
X0233264Y0650744D03*
X0228933Y0650744D03*
D26*
X0219189Y0660980D03*
X0219189Y0628303D03*
X0273323Y0628303D03*
X0273323Y0660980D03*
D27*
X0183756Y0586433D02*
X0113756Y0656433D01*
X0075006Y0656433D01*
X0061256Y0643933D01*
X0061256Y0638933D01*
X0071256Y0638933D02*
X0071256Y0643933D01*
X0076256Y0648933D01*
X0111256Y0648933D01*
X0176256Y0583933D01*
X0176256Y0443933D01*
X0166256Y0433933D01*
X0156256Y0433933D01*
X0156256Y0423933D02*
X0168756Y0423933D01*
X0183756Y0438933D01*
X0183756Y0586433D01*
X0156256Y0523933D02*
X0126256Y0523933D01*
X0126256Y0588933D01*
X0081256Y0633933D01*
X0081256Y0638933D01*
X0116256Y0523933D02*
X0126256Y0523933D01*
X0136256Y0493933D02*
X0066256Y0493933D01*
X0026256Y0453933D01*
X0026256Y0398933D01*
X0031256Y0393933D01*
X0051256Y0393933D01*
X0061256Y0403933D01*
X0061256Y0413933D01*
X0071256Y0413933D02*
X0071256Y0423028D01*
X0071256Y0413933D02*
X0071256Y0402673D01*
X0071256Y0395193D02*
X0067516Y0395193D01*
X0046256Y0373933D01*
X0046256Y0193933D01*
X0076256Y0163933D01*
X0066256Y0188933D02*
X0156256Y0188933D01*
X0176256Y0208933D01*
X0186256Y0208933D01*
X0206256Y0228933D01*
X0206256Y0238933D02*
X0221256Y0238933D01*
X0206256Y0263933D02*
X0186256Y0263933D01*
X0176256Y0273933D01*
X0156256Y0253933D01*
X0066256Y0253933D01*
X0056256Y0248933D02*
X0076256Y0228933D01*
X0056256Y0248933D02*
X0056256Y0368933D01*
X0071256Y0383933D01*
X0076256Y0383933D01*
X0081256Y0388933D01*
X0081256Y0395193D01*
X0081256Y0402673D02*
X0081256Y0413933D01*
X0081256Y0423028D01*
X0091256Y0423028D02*
X0091256Y0413933D01*
X0091256Y0402673D01*
X0091256Y0395193D02*
X0091256Y0383933D01*
X0076256Y0368933D01*
X0071256Y0368933D01*
X0066256Y0363933D01*
X0066256Y0303933D01*
X0076256Y0293933D01*
X0066256Y0318933D02*
X0156256Y0318933D01*
X0176256Y0338933D01*
X0181256Y0338933D01*
X0196256Y0323933D01*
X0196256Y0303933D01*
X0201256Y0298933D01*
X0206256Y0298933D01*
X0206256Y0308933D02*
X0221256Y0308933D01*
X0221256Y0273933D02*
X0206256Y0273933D01*
X0206256Y0203933D02*
X0221256Y0203933D01*
X0206256Y0193933D02*
X0206256Y0153933D01*
X0196256Y0143933D01*
X0176256Y0143933D01*
X0156256Y0123933D01*
X0076256Y0123933D01*
X0148913Y0081591D02*
X0148913Y0078933D01*
X0168598Y0078933D02*
X0168598Y0076591D01*
X0188303Y0076886D02*
X0188303Y0078933D01*
X0221256Y0111886D02*
X0221256Y0113933D01*
X0227673Y0078933D02*
X0227673Y0077516D01*
X0247358Y0078933D02*
X0247358Y0080035D01*
X0267043Y0078933D02*
X0267043Y0078146D01*
X0286728Y0078933D02*
X0286728Y0079406D01*
X0346256Y0078461D02*
X0346728Y0078933D01*
X0346728Y0079406D01*
X0366413Y0078933D02*
X0366413Y0078776D01*
X0376256Y0068933D01*
X0406256Y0068933D01*
X0406256Y0098933D01*
X0416256Y0108933D01*
X0416256Y0198933D01*
X0401256Y0213933D01*
X0376256Y0213933D01*
X0341256Y0248933D01*
X0341256Y0338933D01*
X0331256Y0348933D01*
X0331256Y0323933D02*
X0331256Y0243933D01*
X0341256Y0233933D01*
X0371256Y0203933D01*
X0396256Y0203933D01*
X0406256Y0193933D01*
X0406256Y0143933D01*
X0401256Y0138933D01*
X0387161Y0138933D01*
X0387161Y0129839D01*
X0386256Y0128933D01*
X0386256Y0113933D01*
X0401256Y0113933D01*
X0406256Y0118933D01*
X0386256Y0113933D02*
X0386256Y0079091D01*
X0386098Y0078933D01*
X0376256Y0113933D02*
X0377161Y0114839D01*
X0366256Y0113933D02*
X0365350Y0114839D01*
X0331256Y0198933D02*
X0331256Y0215193D01*
X0331256Y0222673D02*
X0331256Y0223933D01*
X0341256Y0233933D01*
X0301256Y0233933D02*
X0301256Y0366433D01*
X0328756Y0393933D01*
X0328756Y0446433D01*
X0336256Y0453933D01*
X0346256Y0453933D01*
X0346256Y0443933D02*
X0341256Y0443933D01*
X0336256Y0438933D01*
X0336256Y0403933D01*
X0336256Y0393933D02*
X0346256Y0393933D01*
X0351256Y0398933D01*
X0351256Y0408933D01*
X0321256Y0408933D02*
X0321256Y0398933D01*
X0316256Y0393933D01*
X0306256Y0393933D01*
X0306256Y0403933D02*
X0306256Y0438933D01*
X0331256Y0463933D01*
X0346256Y0463933D01*
X0346256Y0473933D02*
X0311256Y0473933D01*
X0293756Y0456433D01*
X0293756Y0261433D01*
X0271256Y0238933D01*
X0301256Y0233933D02*
X0271256Y0203933D01*
X0271256Y0273933D02*
X0286256Y0288933D01*
X0286256Y0463933D01*
X0306256Y0483933D01*
X0346256Y0483933D01*
X0346256Y0519933D02*
X0327256Y0519933D01*
X0278756Y0471433D01*
X0278756Y0316433D01*
X0271256Y0308933D01*
X0271256Y0323933D02*
X0211256Y0383933D01*
X0151256Y0383933D01*
X0121256Y0413933D01*
X0111256Y0413933D01*
X0111256Y0423028D01*
X0101256Y0423028D02*
X0101256Y0413933D01*
X0101256Y0402673D01*
X0101256Y0395193D02*
X0101256Y0373933D01*
X0135350Y0414839D02*
X0135350Y0443933D01*
X0111256Y0443933D01*
X0101256Y0443933D01*
X0101256Y0434839D01*
X0091256Y0434839D01*
X0081256Y0434839D01*
X0081256Y0443933D01*
X0071256Y0443933D01*
X0061256Y0443933D01*
X0051256Y0443933D01*
X0041256Y0443933D01*
X0041256Y0413933D01*
X0051256Y0408933D02*
X0043756Y0401433D01*
X0036256Y0401433D01*
X0033756Y0403933D01*
X0033756Y0451433D01*
X0066256Y0483933D01*
X0131256Y0483933D01*
X0136256Y0478933D01*
X0136256Y0468933D01*
X0141256Y0463933D01*
X0156256Y0463933D01*
X0156256Y0473933D02*
X0136256Y0493933D01*
X0126256Y0473933D02*
X0126256Y0463933D01*
X0126256Y0454839D01*
X0127161Y0453933D01*
X0156256Y0453933D01*
X0156256Y0443933D02*
X0147161Y0443933D01*
X0147161Y0418028D01*
X0162506Y0401433D01*
X0218756Y0401433D01*
X0271256Y0348933D01*
X0271256Y0336433D02*
X0215006Y0392683D01*
X0157506Y0392683D01*
X0135350Y0414839D01*
X0111256Y0434839D02*
X0111256Y0443933D01*
X0115350Y0453933D02*
X0116256Y0454996D01*
X0116256Y0463933D01*
X0116256Y0473933D01*
X0106256Y0463933D02*
X0096256Y0453933D01*
X0092161Y0453933D01*
X0092161Y0444839D01*
X0091256Y0443933D01*
X0081256Y0443933D02*
X0081256Y0453028D01*
X0080350Y0453933D01*
X0071256Y0443933D02*
X0071256Y0434839D01*
X0051256Y0413933D02*
X0051256Y0408933D01*
X0372850Y0328933D02*
X0373756Y0328028D01*
D28*
X0168598Y0076276D02*
X0156256Y0063933D01*
X0141256Y0063933D01*
X0116256Y0088933D01*
X0061256Y0088933D01*
X0026256Y0123933D01*
X0016256Y0133933D01*
X0016256Y0143933D01*
X0016256Y0163933D01*
X0016256Y0188933D01*
X0016256Y0208933D01*
X0016256Y0228933D01*
X0016256Y0253933D01*
X0016256Y0273933D01*
X0016256Y0293933D01*
X0016256Y0318933D01*
X0016256Y0338933D01*
X0016256Y0358933D01*
D29*
X0031256Y0368933D02*
X0031256Y0143933D01*
X0071256Y0103933D01*
X0126413Y0103933D01*
X0148913Y0078933D01*
X0168598Y0076591D02*
X0191256Y0053933D01*
X0331256Y0053933D01*
X0346256Y0068933D01*
X0346256Y0078461D01*
X0346728Y0079406D02*
X0366256Y0098933D01*
X0371256Y0098933D01*
X0376256Y0103933D01*
X0376256Y0113933D01*
X0377161Y0114839D02*
X0377161Y0123933D01*
X0377161Y0133028D01*
X0375350Y0134839D01*
X0375350Y0138933D01*
X0351256Y0138933D01*
X0346256Y0143933D01*
X0346256Y0168933D01*
X0321256Y0193933D01*
X0321256Y0198933D01*
X0321256Y0233933D01*
X0321256Y0336433D01*
X0321256Y0358933D01*
X0351256Y0358933D01*
X0351256Y0333933D01*
X0356256Y0328933D01*
X0351256Y0323933D01*
X0351256Y0313933D01*
X0361256Y0303933D01*
X0396256Y0303933D01*
X0406256Y0313933D01*
X0406256Y0388933D01*
X0416256Y0398933D01*
X0421256Y0403933D01*
X0421256Y0433933D01*
X0431256Y0443933D01*
X0431256Y0528933D01*
X0421256Y0538933D01*
X0386256Y0538933D01*
X0355256Y0569933D01*
X0346256Y0569933D01*
X0330256Y0569933D01*
X0312506Y0587683D01*
X0292506Y0587683D01*
X0381197Y0533874D02*
X0381197Y0526738D01*
X0381197Y0533874D02*
X0386256Y0538933D01*
X0361256Y0328933D02*
X0356256Y0328933D01*
X0156256Y0493933D02*
X0151256Y0493933D01*
X0141256Y0503933D01*
X0061256Y0503933D01*
X0013756Y0456433D01*
X0013756Y0386433D01*
X0031256Y0368933D01*
D30*
X0156256Y0503933D02*
X0156256Y0513933D01*
X0298756Y0598933D02*
X0305911Y0598933D01*
X0306256Y0598589D01*
X0306600Y0598933D01*
X0321256Y0598933D01*
X0331256Y0608933D01*
X0356256Y0608933D01*
X0361256Y0603933D01*
X0361256Y0578933D01*
X0391256Y0548933D01*
X0426256Y0548933D01*
X0441256Y0533933D01*
X0441256Y0493933D01*
X0411256Y0508933D02*
X0406256Y0503933D01*
X0404996Y0503933D01*
X0404996Y0497673D01*
X0401256Y0493933D01*
X0391256Y0493933D01*
X0387506Y0490183D01*
X0387506Y0477683D01*
X0411256Y0453933D01*
X0411256Y0413933D01*
X0396256Y0398933D01*
X0396256Y0318933D01*
X0394100Y0316778D01*
X0385006Y0316778D01*
X0373411Y0316778D01*
X0371256Y0318933D01*
X0361256Y0318933D01*
X0361256Y0328933D02*
X0372850Y0328933D01*
X0373756Y0328028D02*
X0384445Y0328028D01*
X0385006Y0328589D01*
X0373756Y0339839D02*
X0362161Y0339839D01*
X0361256Y0338933D01*
X0361256Y0363933D01*
X0356256Y0368933D01*
X0316256Y0368933D01*
X0311256Y0363933D01*
X0311256Y0188933D01*
X0336256Y0163933D01*
X0336256Y0133933D01*
X0346256Y0123933D01*
X0365350Y0123933D01*
X0365350Y0114839D01*
X0366256Y0113933D02*
X0356256Y0113933D01*
X0336256Y0088933D01*
X0336256Y0073933D01*
X0326256Y0063933D01*
X0321413Y0063933D01*
X0306413Y0078933D01*
X0411256Y0508933D02*
X0411197Y0508992D01*
X0411197Y0516738D01*
D31*
X0226256Y0318933D02*
X0261256Y0283933D01*
X0261256Y0193933D01*
X0271256Y0183933D01*
X0301256Y0183933D01*
X0311256Y0173933D01*
X0326098Y0159091D01*
X0326098Y0078933D01*
X0311256Y0083776D02*
X0306413Y0078933D01*
X0291413Y0063933D01*
X0281256Y0063933D01*
X0267043Y0078146D01*
X0267043Y0078933D02*
X0281256Y0093146D01*
X0281256Y0113933D01*
X0266256Y0098933D02*
X0266256Y0158933D01*
X0251256Y0173933D01*
X0241256Y0183933D01*
X0241256Y0233933D01*
X0226256Y0248933D01*
X0206256Y0248933D01*
X0201256Y0248933D01*
X0191256Y0238933D01*
X0191256Y0228933D01*
X0181256Y0218933D01*
X0176256Y0218933D01*
X0176256Y0228933D02*
X0166256Y0238933D01*
X0086256Y0238933D01*
X0076256Y0228933D01*
X0076256Y0208933D01*
X0086256Y0173933D02*
X0166256Y0173933D01*
X0176256Y0163933D01*
X0176256Y0153933D02*
X0191256Y0153933D01*
X0196256Y0158933D01*
X0196256Y0208933D01*
X0201256Y0213933D01*
X0206256Y0213933D01*
X0226256Y0213933D01*
X0231256Y0208933D01*
X0231256Y0183933D01*
X0221256Y0173933D01*
X0236256Y0158933D01*
X0236256Y0107201D01*
X0207988Y0078933D01*
X0212673Y0063933D02*
X0201256Y0063933D01*
X0188303Y0076886D01*
X0188303Y0078933D02*
X0221256Y0111886D01*
X0251256Y0102516D02*
X0227673Y0078933D01*
X0212673Y0063933D01*
X0227673Y0077516D02*
X0241256Y0063933D01*
X0252043Y0063933D01*
X0267043Y0078933D01*
X0247358Y0080035D02*
X0266256Y0098933D01*
X0251256Y0102516D02*
X0251256Y0113933D01*
X0286728Y0079406D02*
X0296256Y0088933D01*
X0296256Y0158933D01*
X0281256Y0173933D01*
X0266256Y0173933D01*
X0251256Y0188933D01*
X0251256Y0258933D01*
X0226256Y0283933D01*
X0206256Y0283933D01*
X0176256Y0283933D01*
X0176256Y0293933D02*
X0166256Y0303933D01*
X0086256Y0303933D01*
X0076256Y0293933D01*
X0076256Y0273933D01*
X0076256Y0338933D02*
X0076256Y0358933D01*
X0086256Y0358933D01*
X0101256Y0373933D01*
X0161256Y0373933D01*
X0176256Y0358933D01*
X0176256Y0348933D02*
X0186256Y0348933D01*
X0206256Y0328933D01*
X0206256Y0318933D01*
X0226256Y0318933D01*
X0086256Y0173933D02*
X0076256Y0163933D01*
X0076256Y0143933D01*
X0148913Y0081591D02*
X0161256Y0093933D01*
X0173303Y0093933D01*
X0188303Y0078933D01*
X0168598Y0076591D02*
X0168598Y0076276D01*
X0311256Y0083776D02*
X0311256Y0113933D01*
D32*
X0273556Y0413933D02*
X0158030Y0413933D01*
X0155564Y0416599D01*
X0157715Y0416599D01*
X0160410Y0417716D01*
X0161428Y0418733D01*
X0169790Y0418733D01*
X0171701Y0419525D01*
X0186701Y0434525D01*
X0186701Y0434525D01*
X0188164Y0435987D01*
X0188956Y0437899D01*
X0188956Y0587467D01*
X0188164Y0589379D01*
X0116701Y0660841D01*
X0114790Y0661633D01*
X0075130Y0661633D01*
X0074220Y0661676D01*
X0074100Y0661633D01*
X0073972Y0661633D01*
X0073130Y0661285D01*
X0072273Y0660977D01*
X0072179Y0660890D01*
X0072060Y0660841D01*
X0071416Y0660197D01*
X0058429Y0648390D01*
X0058310Y0648341D01*
X0057666Y0647697D01*
X0056993Y0647085D01*
X0056938Y0646969D01*
X0056848Y0646879D01*
X0056499Y0646037D01*
X0056111Y0645214D01*
X0056105Y0645086D01*
X0056056Y0644967D01*
X0056056Y0644198D01*
X0054982Y0643125D01*
X0053856Y0640405D01*
X0053856Y0637461D01*
X0054982Y0634741D01*
X0057064Y0632660D01*
X0059784Y0631533D01*
X0062728Y0631533D01*
X0065448Y0632660D01*
X0066256Y0633468D01*
X0067064Y0632660D01*
X0069784Y0631533D01*
X0072728Y0631533D01*
X0075448Y0632660D01*
X0076056Y0633268D01*
X0076056Y0632899D01*
X0076848Y0630988D01*
X0078310Y0629525D01*
X0121056Y0586779D01*
X0121056Y0529133D01*
X0120673Y0529133D01*
X0120108Y0529698D01*
X0117609Y0530733D01*
X0114903Y0530733D01*
X0112404Y0529698D01*
X0111256Y0528550D01*
X0110749Y0529057D01*
X0110042Y0529599D01*
X0109270Y0530045D01*
X0108446Y0530386D01*
X0107585Y0530617D01*
X0106702Y0530733D01*
X0106256Y0530733D01*
X0106256Y0523933D01*
X0106256Y0517133D01*
X0106702Y0517133D01*
X0107585Y0517249D01*
X0108446Y0517480D01*
X0109270Y0517821D01*
X0110042Y0518267D01*
X0110749Y0518810D01*
X0111256Y0519316D01*
X0112404Y0518168D01*
X0114903Y0517133D01*
X0117609Y0517133D01*
X0120108Y0518168D01*
X0120673Y0518733D01*
X0121839Y0518733D01*
X0122404Y0518168D01*
X0124903Y0517133D01*
X0127609Y0517133D01*
X0130108Y0518168D01*
X0130673Y0518733D01*
X0150695Y0518733D01*
X0150145Y0518016D01*
X0149664Y0517184D01*
X0149296Y0516296D01*
X0149048Y0515367D01*
X0148922Y0514414D01*
X0148922Y0513933D01*
X0148922Y0513452D01*
X0149048Y0512499D01*
X0149296Y0511571D01*
X0149664Y0510682D01*
X0150145Y0509850D01*
X0150730Y0509087D01*
X0150884Y0508933D01*
X0150730Y0508779D01*
X0150145Y0508016D01*
X0149664Y0507184D01*
X0149296Y0506296D01*
X0149100Y0505564D01*
X0145051Y0509613D01*
X0142589Y0510633D01*
X0059923Y0510633D01*
X0057461Y0509613D01*
X0009961Y0462113D01*
X0009961Y0462113D01*
X0008076Y0460228D01*
X0007056Y0457766D01*
X0007056Y0413933D01*
X0006456Y0413933D01*
X0006456Y0505448D01*
X0008647Y0502234D01*
X0008647Y0502234D01*
X0012656Y0499037D01*
X0017429Y0497164D01*
X0022541Y0496781D01*
X0027540Y0497922D01*
X0031980Y0500486D01*
X0035467Y0504244D01*
X0037692Y0508863D01*
X0037692Y0508863D01*
X0038456Y0513933D01*
X0037692Y0519003D01*
X0035467Y0523622D01*
X0035467Y0523622D01*
X0031980Y0527381D01*
X0027540Y0529944D01*
X0027540Y0529944D01*
X0022541Y0531085D01*
X0017429Y0530702D01*
X0017429Y0530702D01*
X0012656Y0528829D01*
X0008647Y0525632D01*
X0006456Y0522418D01*
X0006456Y0645448D01*
X0008647Y0642234D01*
X0008647Y0642234D01*
X0008647Y0642234D01*
X0012656Y0639037D01*
X0017429Y0637164D01*
X0022541Y0636781D01*
X0022541Y0636781D01*
X0027540Y0637922D01*
X0031980Y0640486D01*
X0035467Y0644244D01*
X0037692Y0648863D01*
X0038456Y0653933D01*
X0037692Y0659003D01*
X0035467Y0663622D01*
X0035467Y0663622D01*
X0031980Y0667381D01*
X0029637Y0668733D01*
X0351256Y0668733D01*
X0351256Y0614633D01*
X0330122Y0614633D01*
X0328027Y0613765D01*
X0318895Y0604633D01*
X0311091Y0604633D01*
X0310829Y0604741D01*
X0302503Y0604741D01*
X0300109Y0605733D01*
X0297403Y0605733D01*
X0294904Y0604698D01*
X0292991Y0602785D01*
X0291956Y0600286D01*
X0291956Y0597580D01*
X0292991Y0595081D01*
X0294904Y0593168D01*
X0297403Y0592133D01*
X0300109Y0592133D01*
X0300258Y0592195D01*
X0299833Y0591770D01*
X0299483Y0591246D01*
X0299242Y0590664D01*
X0299119Y0590045D01*
X0299119Y0587054D01*
X0305979Y0587054D01*
X0305979Y0586501D01*
X0299119Y0586501D01*
X0299119Y0585107D01*
X0297609Y0585733D01*
X0294903Y0585733D01*
X0292404Y0584698D01*
X0290491Y0582785D01*
X0289456Y0580286D01*
X0289456Y0577580D01*
X0290491Y0575081D01*
X0292404Y0573168D01*
X0294903Y0572133D01*
X0296268Y0572133D01*
X0312537Y0555864D01*
X0314301Y0555133D01*
X0340684Y0555133D01*
X0340884Y0554933D01*
X0340684Y0554733D01*
X0296301Y0554733D01*
X0294537Y0554002D01*
X0284268Y0543733D01*
X0250673Y0543733D01*
X0252021Y0545081D01*
X0253056Y0547580D01*
X0253056Y0550286D01*
X0253014Y0550387D01*
X0253537Y0549864D01*
X0258537Y0544864D01*
X0260301Y0544133D01*
X0272211Y0544133D01*
X0273975Y0544864D01*
X0275325Y0546214D01*
X0280325Y0551214D01*
X0281056Y0552978D01*
X0281056Y0564116D01*
X0282021Y0565081D01*
X0283056Y0567580D01*
X0283056Y0570286D01*
X0282021Y0572785D01*
X0280108Y0574698D01*
X0277609Y0575733D01*
X0274903Y0575733D01*
X0272404Y0574698D01*
X0271256Y0573550D01*
X0271056Y0573750D01*
X0271056Y0609888D01*
X0270325Y0611652D01*
X0268975Y0613002D01*
X0259717Y0622260D01*
X0259717Y0644591D01*
X0261459Y0644591D01*
X0262635Y0645079D01*
X0263536Y0645979D01*
X0264023Y0647155D01*
X0264023Y0654333D01*
X0263536Y0655509D01*
X0262635Y0656410D01*
X0261459Y0656897D01*
X0239714Y0656897D01*
X0239639Y0656866D01*
X0239484Y0656897D01*
X0237595Y0656897D01*
X0237595Y0655406D01*
X0237594Y0655405D01*
X0237594Y0655406D01*
X0237594Y0656897D01*
X0235705Y0656897D01*
X0235550Y0656866D01*
X0235475Y0656897D01*
X0226722Y0656897D01*
X0225546Y0656410D01*
X0225032Y0655896D01*
X0225120Y0656110D01*
X0225243Y0656728D01*
X0225243Y0660753D01*
X0219416Y0660753D01*
X0219416Y0653843D01*
X0222358Y0653843D01*
X0222977Y0653966D01*
X0223559Y0654208D01*
X0224083Y0654558D01*
X0224370Y0654845D01*
X0224158Y0654333D01*
X0224158Y0647155D01*
X0224645Y0645979D01*
X0225546Y0645079D01*
X0226722Y0644591D01*
X0228464Y0644591D01*
X0228464Y0545970D01*
X0229195Y0544206D01*
X0237187Y0536214D01*
X0238537Y0534864D01*
X0240301Y0534133D01*
X0284668Y0534133D01*
X0276268Y0525733D01*
X0274903Y0525733D01*
X0272404Y0524698D01*
X0270491Y0522785D01*
X0269456Y0520286D01*
X0269456Y0517580D01*
X0270491Y0515081D01*
X0271839Y0513733D01*
X0271073Y0513733D01*
X0270108Y0514698D01*
X0267609Y0515733D01*
X0264903Y0515733D01*
X0262404Y0514698D01*
X0260491Y0512785D01*
X0259456Y0510286D01*
X0259456Y0507580D01*
X0260491Y0505081D01*
X0262404Y0503168D01*
X0264903Y0502133D01*
X0267609Y0502133D01*
X0270108Y0503168D01*
X0271073Y0504133D01*
X0277211Y0504133D01*
X0278975Y0504864D01*
X0280325Y0506214D01*
X0299244Y0525133D01*
X0340684Y0525133D01*
X0340684Y0525133D01*
X0326222Y0525133D01*
X0324310Y0524341D01*
X0322848Y0522879D01*
X0274348Y0474379D01*
X0273556Y0472467D01*
X0273556Y0413933D01*
X0273556Y0415702D02*
X0156394Y0415702D01*
X0160795Y0418101D02*
X0273556Y0418101D01*
X0273556Y0420499D02*
X0172676Y0420499D01*
X0175075Y0422898D02*
X0273556Y0422898D01*
X0273556Y0425296D02*
X0177473Y0425296D01*
X0179872Y0427695D02*
X0273556Y0427695D01*
X0273556Y0430093D02*
X0182270Y0430093D01*
X0184669Y0432492D02*
X0273556Y0432492D01*
X0273556Y0434890D02*
X0187067Y0434890D01*
X0188703Y0437289D02*
X0273556Y0437289D01*
X0273556Y0439687D02*
X0188956Y0439687D01*
X0188956Y0442086D02*
X0273556Y0442086D01*
X0273556Y0444484D02*
X0188956Y0444484D01*
X0188956Y0446883D02*
X0273556Y0446883D01*
X0273556Y0449281D02*
X0188956Y0449281D01*
X0188956Y0451680D02*
X0273556Y0451680D01*
X0273556Y0454079D02*
X0188956Y0454079D01*
X0188956Y0456477D02*
X0273556Y0456477D01*
X0273556Y0458876D02*
X0188956Y0458876D01*
X0188956Y0461274D02*
X0273556Y0461274D01*
X0273556Y0463673D02*
X0188956Y0463673D01*
X0188956Y0466071D02*
X0273556Y0466071D01*
X0273556Y0468470D02*
X0188956Y0468470D01*
X0188956Y0470868D02*
X0273556Y0470868D01*
X0273887Y0473267D02*
X0188956Y0473267D01*
X0188956Y0475665D02*
X0275634Y0475665D01*
X0278033Y0478064D02*
X0188956Y0478064D01*
X0188956Y0480462D02*
X0280431Y0480462D01*
X0282830Y0482861D02*
X0188956Y0482861D01*
X0188956Y0485259D02*
X0285228Y0485259D01*
X0287627Y0487658D02*
X0188956Y0487658D01*
X0188956Y0490056D02*
X0290025Y0490056D01*
X0292424Y0492455D02*
X0188956Y0492455D01*
X0188956Y0494853D02*
X0294822Y0494853D01*
X0297221Y0497252D02*
X0188956Y0497252D01*
X0188956Y0499650D02*
X0299619Y0499650D01*
X0302018Y0502049D02*
X0188956Y0502049D01*
X0188956Y0504447D02*
X0261125Y0504447D01*
X0259760Y0506846D02*
X0188956Y0506846D01*
X0188956Y0509244D02*
X0259456Y0509244D01*
X0260018Y0511643D02*
X0188956Y0511643D01*
X0188956Y0514041D02*
X0261747Y0514041D01*
X0269928Y0516440D02*
X0188956Y0516440D01*
X0188956Y0518838D02*
X0269456Y0518838D01*
X0269850Y0521237D02*
X0188956Y0521237D01*
X0188956Y0523635D02*
X0271342Y0523635D01*
X0276568Y0526034D02*
X0188956Y0526034D01*
X0188956Y0528432D02*
X0278967Y0528432D01*
X0281366Y0530831D02*
X0188956Y0530831D01*
X0188956Y0533229D02*
X0283764Y0533229D01*
X0285757Y0545222D02*
X0274333Y0545222D01*
X0276731Y0547620D02*
X0288155Y0547620D01*
X0290554Y0550019D02*
X0279130Y0550019D01*
X0280824Y0552417D02*
X0292952Y0552417D01*
X0281056Y0554816D02*
X0340767Y0554816D01*
X0340684Y0564733D02*
X0317244Y0564733D01*
X0303056Y0578921D01*
X0303056Y0580286D01*
X0302915Y0580625D01*
X0305980Y0580625D01*
X0305980Y0586501D01*
X0306532Y0586501D01*
X0306532Y0580625D01*
X0310508Y0580625D01*
X0311126Y0580748D01*
X0311709Y0580989D01*
X0312233Y0581339D01*
X0312679Y0581785D01*
X0313029Y0582309D01*
X0313270Y0582891D01*
X0313393Y0583510D01*
X0313393Y0586501D01*
X0306532Y0586501D01*
X0306532Y0587054D01*
X0313393Y0587054D01*
X0313393Y0590045D01*
X0313270Y0590664D01*
X0313029Y0591246D01*
X0312679Y0591770D01*
X0312233Y0592216D01*
X0311709Y0592566D01*
X0311426Y0592683D01*
X0312006Y0592923D01*
X0312316Y0593233D01*
X0322390Y0593233D01*
X0324485Y0594101D01*
X0326088Y0595704D01*
X0333617Y0603233D01*
X0339685Y0603233D01*
X0338922Y0601392D01*
X0338922Y0598474D01*
X0340039Y0595779D01*
X0340884Y0594933D01*
X0340039Y0594087D01*
X0338922Y0591392D01*
X0338922Y0588474D01*
X0340039Y0585779D01*
X0340884Y0584933D01*
X0340039Y0584087D01*
X0338922Y0581392D01*
X0338922Y0578474D01*
X0340039Y0575779D01*
X0340884Y0574933D01*
X0340730Y0574779D01*
X0340145Y0574016D01*
X0339664Y0573184D01*
X0339296Y0572296D01*
X0339048Y0571367D01*
X0338922Y0570414D01*
X0338922Y0569933D01*
X0338922Y0569452D01*
X0339048Y0568499D01*
X0339296Y0567571D01*
X0339664Y0566682D01*
X0340145Y0565850D01*
X0340730Y0565087D01*
X0340884Y0564933D01*
X0340684Y0564733D01*
X0339612Y0566809D02*
X0315169Y0566809D01*
X0312770Y0569207D02*
X0338954Y0569207D01*
X0338922Y0569933D02*
X0346256Y0569933D01*
X0346256Y0569933D01*
X0338922Y0569933D01*
X0339111Y0571606D02*
X0310372Y0571606D01*
X0307973Y0574004D02*
X0340138Y0574004D01*
X0339780Y0576403D02*
X0305575Y0576403D01*
X0303176Y0578801D02*
X0338922Y0578801D01*
X0338922Y0581200D02*
X0312024Y0581200D01*
X0313393Y0583598D02*
X0339836Y0583598D01*
X0339948Y0585997D02*
X0313393Y0585997D01*
X0313393Y0588395D02*
X0338955Y0588395D01*
X0338922Y0590794D02*
X0313216Y0590794D01*
X0312275Y0593192D02*
X0339668Y0593192D01*
X0340227Y0595591D02*
X0325975Y0595591D01*
X0328373Y0597989D02*
X0339123Y0597989D01*
X0338922Y0600388D02*
X0330772Y0600388D01*
X0333170Y0602786D02*
X0339500Y0602786D01*
X0326642Y0612380D02*
X0269597Y0612380D01*
X0271017Y0609982D02*
X0324244Y0609982D01*
X0321845Y0607583D02*
X0271056Y0607583D01*
X0271056Y0605185D02*
X0296079Y0605185D01*
X0292992Y0602786D02*
X0271056Y0602786D01*
X0271056Y0600388D02*
X0291998Y0600388D01*
X0291956Y0597989D02*
X0271056Y0597989D01*
X0271056Y0595591D02*
X0292780Y0595591D01*
X0294880Y0593192D02*
X0271056Y0593192D01*
X0271056Y0590794D02*
X0299296Y0590794D01*
X0299119Y0588395D02*
X0271056Y0588395D01*
X0271056Y0585997D02*
X0299119Y0585997D01*
X0291304Y0583598D02*
X0271056Y0583598D01*
X0271056Y0581200D02*
X0289834Y0581200D01*
X0289456Y0578801D02*
X0271056Y0578801D01*
X0271056Y0576403D02*
X0289944Y0576403D01*
X0291568Y0574004D02*
X0280802Y0574004D01*
X0282509Y0571606D02*
X0296795Y0571606D01*
X0299194Y0569207D02*
X0283056Y0569207D01*
X0282736Y0566809D02*
X0301592Y0566809D01*
X0303991Y0564410D02*
X0281349Y0564410D01*
X0281056Y0562012D02*
X0306389Y0562012D01*
X0308788Y0559613D02*
X0281056Y0559613D01*
X0281056Y0557214D02*
X0311186Y0557214D01*
X0306532Y0581200D02*
X0305980Y0581200D01*
X0305980Y0583598D02*
X0306532Y0583598D01*
X0306532Y0585997D02*
X0305980Y0585997D01*
X0301432Y0605185D02*
X0319447Y0605185D01*
X0351256Y0614779D02*
X0267198Y0614779D01*
X0264800Y0617177D02*
X0351256Y0617177D01*
X0351256Y0619576D02*
X0262401Y0619576D01*
X0260003Y0621974D02*
X0268335Y0621974D01*
X0268429Y0621881D02*
X0268953Y0621530D01*
X0269535Y0621289D01*
X0270153Y0621166D01*
X0273096Y0621166D01*
X0273096Y0628076D01*
X0273550Y0628076D01*
X0273550Y0628530D01*
X0279377Y0628530D01*
X0279377Y0632555D01*
X0279254Y0633174D01*
X0279013Y0633756D01*
X0278663Y0634280D01*
X0278217Y0634726D01*
X0277693Y0635076D01*
X0277111Y0635317D01*
X0276492Y0635440D01*
X0273550Y0635440D01*
X0273550Y0628530D01*
X0273096Y0628530D01*
X0273096Y0628076D01*
X0267269Y0628076D01*
X0267269Y0624051D01*
X0267391Y0623433D01*
X0267633Y0622850D01*
X0267983Y0622326D01*
X0268429Y0621881D01*
X0267269Y0624373D02*
X0259717Y0624373D01*
X0259717Y0626771D02*
X0267269Y0626771D01*
X0267268Y0628530D02*
X0273096Y0628530D01*
X0273096Y0635440D01*
X0270153Y0635440D01*
X0269535Y0635317D01*
X0268953Y0635076D01*
X0268429Y0634726D01*
X0267983Y0634280D01*
X0267633Y0633756D01*
X0267391Y0633174D01*
X0267269Y0632555D01*
X0267268Y0628530D01*
X0267269Y0629170D02*
X0259717Y0629170D01*
X0259717Y0631568D02*
X0267269Y0631568D01*
X0267774Y0633967D02*
X0259717Y0633967D01*
X0259717Y0636365D02*
X0351256Y0636365D01*
X0351256Y0633967D02*
X0278872Y0633967D01*
X0279377Y0631568D02*
X0351256Y0631568D01*
X0351256Y0629170D02*
X0279377Y0629170D01*
X0279377Y0628076D02*
X0273550Y0628076D01*
X0273550Y0621166D01*
X0276492Y0621166D01*
X0277111Y0621289D01*
X0277693Y0621530D01*
X0278217Y0621881D01*
X0278663Y0622326D01*
X0279013Y0622850D01*
X0279254Y0623433D01*
X0279377Y0624051D01*
X0279377Y0628076D01*
X0279377Y0626771D02*
X0351256Y0626771D01*
X0351256Y0624373D02*
X0279377Y0624373D01*
X0278311Y0621974D02*
X0351256Y0621974D01*
X0351256Y0638764D02*
X0259717Y0638764D01*
X0259717Y0641162D02*
X0351256Y0641162D01*
X0351256Y0643561D02*
X0259717Y0643561D01*
X0263516Y0645959D02*
X0351256Y0645959D01*
X0351256Y0648358D02*
X0264023Y0648358D01*
X0264023Y0650756D02*
X0351256Y0650756D01*
X0351256Y0653155D02*
X0264023Y0653155D01*
X0263492Y0655553D02*
X0267622Y0655553D01*
X0267633Y0655528D02*
X0267983Y0655003D01*
X0268429Y0654558D01*
X0268953Y0654208D01*
X0269535Y0653966D01*
X0270153Y0653843D01*
X0273096Y0653843D01*
X0273096Y0660753D01*
X0273550Y0660753D01*
X0273550Y0653843D01*
X0276492Y0653843D01*
X0277111Y0653966D01*
X0277693Y0654208D01*
X0278217Y0654558D01*
X0278663Y0655003D01*
X0279013Y0655528D01*
X0279254Y0656110D01*
X0279377Y0656728D01*
X0279377Y0660753D01*
X0273550Y0660753D01*
X0273550Y0661207D01*
X0279377Y0661207D01*
X0279377Y0665232D01*
X0279254Y0665851D01*
X0279013Y0666433D01*
X0278663Y0666957D01*
X0278217Y0667403D01*
X0277693Y0667753D01*
X0277111Y0667994D01*
X0276492Y0668117D01*
X0273550Y0668117D01*
X0273550Y0661208D01*
X0273096Y0661208D01*
X0273096Y0668117D01*
X0270153Y0668117D01*
X0269535Y0667994D01*
X0268953Y0667753D01*
X0268429Y0667403D01*
X0267983Y0666957D01*
X0267633Y0666433D01*
X0267391Y0665851D01*
X0267269Y0665232D01*
X0267268Y0661207D01*
X0273096Y0661207D01*
X0273096Y0660753D01*
X0267269Y0660753D01*
X0267269Y0656728D01*
X0267391Y0656110D01*
X0267633Y0655528D01*
X0267269Y0657952D02*
X0225243Y0657952D01*
X0225243Y0660350D02*
X0267269Y0660350D01*
X0267269Y0662749D02*
X0225243Y0662749D01*
X0225243Y0661207D02*
X0225243Y0665232D01*
X0225120Y0665851D01*
X0224879Y0666433D01*
X0224529Y0666957D01*
X0224083Y0667403D01*
X0223559Y0667753D01*
X0222977Y0667994D01*
X0222358Y0668117D01*
X0219416Y0668117D01*
X0219416Y0661208D01*
X0218962Y0661208D01*
X0218962Y0668117D01*
X0216019Y0668117D01*
X0215401Y0667994D01*
X0214819Y0667753D01*
X0214295Y0667403D01*
X0213849Y0666957D01*
X0213499Y0666433D01*
X0213258Y0665851D01*
X0213135Y0665232D01*
X0213135Y0661207D01*
X0218962Y0661207D01*
X0218962Y0660753D01*
X0219416Y0660753D01*
X0219416Y0661207D01*
X0225243Y0661207D01*
X0225243Y0665148D02*
X0267269Y0665148D01*
X0268643Y0667546D02*
X0223869Y0667546D01*
X0219416Y0667546D02*
X0218962Y0667546D01*
X0218962Y0665148D02*
X0219416Y0665148D01*
X0219416Y0662749D02*
X0218962Y0662749D01*
X0218962Y0660753D02*
X0213135Y0660753D01*
X0213135Y0656728D01*
X0213258Y0656110D01*
X0213499Y0655528D01*
X0213849Y0655003D01*
X0214295Y0654558D01*
X0214819Y0654208D01*
X0215401Y0653966D01*
X0216019Y0653843D01*
X0218962Y0653843D01*
X0218962Y0660753D01*
X0218962Y0660350D02*
X0219416Y0660350D01*
X0219416Y0657952D02*
X0218962Y0657952D01*
X0218962Y0655553D02*
X0219416Y0655553D01*
X0224158Y0653155D02*
X0124388Y0653155D01*
X0126786Y0650756D02*
X0224158Y0650756D01*
X0224158Y0648358D02*
X0129185Y0648358D01*
X0131583Y0645959D02*
X0224665Y0645959D01*
X0228464Y0643561D02*
X0133982Y0643561D01*
X0136380Y0641162D02*
X0228464Y0641162D01*
X0228464Y0638764D02*
X0138779Y0638764D01*
X0141178Y0636365D02*
X0228464Y0636365D01*
X0228464Y0633967D02*
X0224738Y0633967D01*
X0224879Y0633756D02*
X0224529Y0634280D01*
X0224083Y0634726D01*
X0223559Y0635076D01*
X0222977Y0635317D01*
X0222358Y0635440D01*
X0219416Y0635440D01*
X0219416Y0628530D01*
X0225243Y0628530D01*
X0225243Y0632555D01*
X0225120Y0633174D01*
X0224879Y0633756D01*
X0225243Y0631568D02*
X0228464Y0631568D01*
X0228464Y0629170D02*
X0225243Y0629170D01*
X0225243Y0628076D02*
X0219416Y0628076D01*
X0219416Y0621166D01*
X0222358Y0621166D01*
X0222977Y0621289D01*
X0223559Y0621530D01*
X0224083Y0621881D01*
X0224529Y0622326D01*
X0224879Y0622850D01*
X0225120Y0623433D01*
X0225243Y0624051D01*
X0225243Y0628076D01*
X0225243Y0626771D02*
X0228464Y0626771D01*
X0228464Y0624373D02*
X0225243Y0624373D01*
X0224177Y0621974D02*
X0228464Y0621974D01*
X0228464Y0619576D02*
X0157967Y0619576D01*
X0155569Y0621974D02*
X0214201Y0621974D01*
X0214295Y0621881D02*
X0214819Y0621530D01*
X0215401Y0621289D01*
X0216019Y0621166D01*
X0218962Y0621166D01*
X0218962Y0628076D01*
X0219416Y0628076D01*
X0219416Y0628530D01*
X0218962Y0628530D01*
X0218962Y0628076D01*
X0213135Y0628076D01*
X0213135Y0624051D01*
X0213258Y0623433D01*
X0213499Y0622850D01*
X0213849Y0622326D01*
X0214295Y0621881D01*
X0213135Y0624373D02*
X0153170Y0624373D01*
X0150772Y0626771D02*
X0213135Y0626771D01*
X0213135Y0628530D02*
X0218962Y0628530D01*
X0218962Y0635440D01*
X0216019Y0635440D01*
X0215401Y0635317D01*
X0214819Y0635076D01*
X0214295Y0634726D01*
X0213849Y0634280D01*
X0213499Y0633756D01*
X0213258Y0633174D01*
X0213135Y0632555D01*
X0213135Y0628530D01*
X0213135Y0629170D02*
X0148373Y0629170D01*
X0145975Y0631568D02*
X0213135Y0631568D01*
X0213640Y0633967D02*
X0143576Y0633967D01*
X0130861Y0621974D02*
X0100569Y0621974D01*
X0102967Y0619576D02*
X0133259Y0619576D01*
X0135658Y0617177D02*
X0105366Y0617177D01*
X0107764Y0614779D02*
X0138056Y0614779D01*
X0140455Y0612380D02*
X0110163Y0612380D01*
X0112561Y0609982D02*
X0142853Y0609982D01*
X0145252Y0607583D02*
X0114960Y0607583D01*
X0117358Y0605185D02*
X0147650Y0605185D01*
X0150049Y0602786D02*
X0119757Y0602786D01*
X0122155Y0600388D02*
X0152447Y0600388D01*
X0154846Y0597989D02*
X0124554Y0597989D01*
X0126952Y0595591D02*
X0157244Y0595591D01*
X0159643Y0593192D02*
X0129351Y0593192D01*
X0130664Y0591879D02*
X0131456Y0589967D01*
X0131456Y0529133D01*
X0150684Y0529133D01*
X0150039Y0529779D01*
X0148922Y0532474D01*
X0148922Y0535392D01*
X0150039Y0538087D01*
X0150884Y0538933D01*
X0150039Y0539779D01*
X0148922Y0542474D01*
X0148922Y0545392D01*
X0150039Y0548087D01*
X0150884Y0548933D01*
X0150039Y0549779D01*
X0148922Y0552474D01*
X0148922Y0555392D01*
X0150039Y0558087D01*
X0150884Y0558933D01*
X0150039Y0559779D01*
X0148922Y0562474D01*
X0148922Y0565392D01*
X0150039Y0568087D01*
X0152102Y0570150D01*
X0154797Y0571267D01*
X0157715Y0571267D01*
X0160410Y0570150D01*
X0162473Y0568087D01*
X0163590Y0565392D01*
X0163590Y0562474D01*
X0162473Y0559779D01*
X0161628Y0558933D01*
X0162473Y0558087D01*
X0163590Y0555392D01*
X0163590Y0552474D01*
X0162473Y0549779D01*
X0161628Y0548933D01*
X0162473Y0548087D01*
X0163590Y0545392D01*
X0163590Y0542474D01*
X0162473Y0539779D01*
X0161628Y0538933D01*
X0162473Y0538087D01*
X0163590Y0535392D01*
X0163590Y0532474D01*
X0162473Y0529779D01*
X0161628Y0528933D01*
X0162473Y0528087D01*
X0163590Y0525392D01*
X0163590Y0522474D01*
X0162473Y0519779D01*
X0161628Y0518933D01*
X0161782Y0518779D01*
X0162367Y0518016D01*
X0162848Y0517184D01*
X0163215Y0516296D01*
X0163464Y0515367D01*
X0163590Y0514414D01*
X0163590Y0513933D01*
X0156256Y0513933D01*
X0156256Y0513933D01*
X0156256Y0511267D01*
X0156256Y0503933D01*
X0156256Y0503933D01*
X0163590Y0503933D01*
X0163590Y0503452D01*
X0163464Y0502499D01*
X0163215Y0501571D01*
X0162848Y0500682D01*
X0162367Y0499850D01*
X0161782Y0499087D01*
X0161628Y0498933D01*
X0162473Y0498087D01*
X0163590Y0495392D01*
X0163590Y0492474D01*
X0162473Y0489779D01*
X0160410Y0487716D01*
X0157715Y0486599D01*
X0154797Y0486599D01*
X0153267Y0487233D01*
X0150310Y0487233D01*
X0156276Y0481267D01*
X0157715Y0481267D01*
X0160410Y0480150D01*
X0162473Y0478087D01*
X0163590Y0475392D01*
X0163590Y0472474D01*
X0162473Y0469779D01*
X0161628Y0468933D01*
X0162473Y0468087D01*
X0163590Y0465392D01*
X0163590Y0462474D01*
X0162473Y0459779D01*
X0161628Y0458933D01*
X0162473Y0458087D01*
X0163590Y0455392D01*
X0163590Y0452474D01*
X0162473Y0449779D01*
X0161628Y0448933D01*
X0162473Y0448087D01*
X0163590Y0445392D01*
X0163590Y0442474D01*
X0162473Y0439779D01*
X0161828Y0439133D01*
X0164102Y0439133D01*
X0171056Y0446087D01*
X0171056Y0581779D01*
X0109102Y0643733D01*
X0096900Y0643733D01*
X0097422Y0643053D01*
X0097907Y0642213D01*
X0098278Y0641317D01*
X0098529Y0640380D01*
X0098656Y0639418D01*
X0098656Y0638933D01*
X0091256Y0638933D01*
X0091256Y0638933D01*
X0091256Y0631533D01*
X0091741Y0631533D01*
X0092703Y0631660D01*
X0093640Y0631911D01*
X0094536Y0632282D01*
X0095376Y0632767D01*
X0096146Y0633358D01*
X0096831Y0634043D01*
X0097422Y0634813D01*
X0097907Y0635653D01*
X0098278Y0636549D01*
X0098529Y0637486D01*
X0098656Y0638448D01*
X0098656Y0638933D01*
X0091256Y0638933D01*
X0091256Y0638933D01*
X0091256Y0631533D01*
X0091010Y0631533D01*
X0130664Y0591879D01*
X0131114Y0590794D02*
X0162041Y0590794D01*
X0164440Y0588395D02*
X0131456Y0588395D01*
X0131456Y0585997D02*
X0166838Y0585997D01*
X0169237Y0583598D02*
X0131456Y0583598D01*
X0131456Y0581200D02*
X0171056Y0581200D01*
X0171056Y0578801D02*
X0131456Y0578801D01*
X0131456Y0576403D02*
X0171056Y0576403D01*
X0171056Y0574004D02*
X0131456Y0574004D01*
X0131456Y0571606D02*
X0171056Y0571606D01*
X0171056Y0569207D02*
X0161354Y0569207D01*
X0163003Y0566809D02*
X0171056Y0566809D01*
X0171056Y0564410D02*
X0163590Y0564410D01*
X0163398Y0562012D02*
X0171056Y0562012D01*
X0171056Y0559613D02*
X0162307Y0559613D01*
X0162835Y0557214D02*
X0171056Y0557214D01*
X0171056Y0554816D02*
X0163590Y0554816D01*
X0163566Y0552417D02*
X0171056Y0552417D01*
X0171056Y0550019D02*
X0162573Y0550019D01*
X0162667Y0547620D02*
X0171056Y0547620D01*
X0171056Y0545222D02*
X0163590Y0545222D01*
X0163590Y0542823D02*
X0171056Y0542823D01*
X0171056Y0540425D02*
X0162741Y0540425D01*
X0162498Y0538026D02*
X0171056Y0538026D01*
X0171056Y0535628D02*
X0163492Y0535628D01*
X0163590Y0533229D02*
X0171056Y0533229D01*
X0171056Y0530831D02*
X0162909Y0530831D01*
X0162128Y0528432D02*
X0171056Y0528432D01*
X0171056Y0526034D02*
X0163324Y0526034D01*
X0163590Y0523635D02*
X0171056Y0523635D01*
X0171056Y0521237D02*
X0163077Y0521237D01*
X0161722Y0518838D02*
X0171056Y0518838D01*
X0171056Y0516440D02*
X0163156Y0516440D01*
X0163590Y0514041D02*
X0171056Y0514041D01*
X0171056Y0511643D02*
X0163235Y0511643D01*
X0163215Y0511571D02*
X0163464Y0512499D01*
X0163590Y0513452D01*
X0163590Y0513933D01*
X0156256Y0513933D01*
X0156256Y0513933D01*
X0156256Y0503933D01*
X0163590Y0503933D01*
X0163590Y0504414D01*
X0163464Y0505367D01*
X0163215Y0506296D01*
X0162848Y0507184D01*
X0162367Y0508016D01*
X0161782Y0508779D01*
X0161628Y0508933D01*
X0161782Y0509087D01*
X0162367Y0509850D01*
X0162848Y0510682D01*
X0163215Y0511571D01*
X0161902Y0509244D02*
X0171056Y0509244D01*
X0171056Y0506846D02*
X0162988Y0506846D01*
X0163585Y0504447D02*
X0171056Y0504447D01*
X0171056Y0502049D02*
X0163344Y0502049D01*
X0162214Y0499650D02*
X0171056Y0499650D01*
X0171056Y0497252D02*
X0162819Y0497252D01*
X0163590Y0494853D02*
X0171056Y0494853D01*
X0171056Y0492455D02*
X0163582Y0492455D01*
X0162588Y0490056D02*
X0171056Y0490056D01*
X0171056Y0487658D02*
X0160270Y0487658D01*
X0159658Y0480462D02*
X0171056Y0480462D01*
X0171056Y0478064D02*
X0162483Y0478064D01*
X0163477Y0475665D02*
X0171056Y0475665D01*
X0171056Y0473267D02*
X0163590Y0473267D01*
X0162924Y0470868D02*
X0171056Y0470868D01*
X0171056Y0468470D02*
X0162091Y0468470D01*
X0163308Y0466071D02*
X0171056Y0466071D01*
X0171056Y0463673D02*
X0163590Y0463673D01*
X0163093Y0461274D02*
X0171056Y0461274D01*
X0171056Y0458876D02*
X0161685Y0458876D01*
X0163140Y0456477D02*
X0171056Y0456477D01*
X0171056Y0454079D02*
X0163590Y0454079D01*
X0163261Y0451680D02*
X0171056Y0451680D01*
X0171056Y0449281D02*
X0161976Y0449281D01*
X0162972Y0446883D02*
X0171056Y0446883D01*
X0169453Y0444484D02*
X0163590Y0444484D01*
X0163429Y0442086D02*
X0167055Y0442086D01*
X0164656Y0439687D02*
X0162382Y0439687D01*
X0154682Y0482861D02*
X0171056Y0482861D01*
X0171056Y0485259D02*
X0152284Y0485259D01*
X0156256Y0503933D02*
X0156256Y0503933D01*
X0156256Y0504447D02*
X0156256Y0504447D01*
X0156256Y0506846D02*
X0156256Y0506846D01*
X0156256Y0509244D02*
X0156256Y0509244D01*
X0156256Y0511643D02*
X0156256Y0511643D01*
X0156256Y0513933D02*
X0148922Y0513933D01*
X0156256Y0513933D01*
X0156256Y0513933D01*
X0150610Y0509244D02*
X0145420Y0509244D01*
X0147818Y0506846D02*
X0149524Y0506846D01*
X0149277Y0511643D02*
X0038111Y0511643D01*
X0038440Y0514041D02*
X0148922Y0514041D01*
X0149356Y0516440D02*
X0038078Y0516440D01*
X0037717Y0518838D02*
X0101734Y0518838D01*
X0101763Y0518810D02*
X0102470Y0518267D01*
X0103242Y0517821D01*
X0104065Y0517480D01*
X0104926Y0517249D01*
X0105810Y0517133D01*
X0106256Y0517133D01*
X0106256Y0523933D01*
X0106256Y0523933D01*
X0106256Y0523933D01*
X0099456Y0523933D01*
X0099456Y0523487D01*
X0099572Y0522604D01*
X0099803Y0521743D01*
X0100144Y0520919D01*
X0100590Y0520147D01*
X0101132Y0519440D01*
X0101763Y0518810D01*
X0100012Y0521237D02*
X0036616Y0521237D01*
X0037692Y0519003D02*
X0037692Y0519003D01*
X0035455Y0523635D02*
X0099456Y0523635D01*
X0099456Y0523933D02*
X0106256Y0523933D01*
X0106256Y0523933D01*
X0106256Y0530733D01*
X0105810Y0530733D01*
X0104926Y0530617D01*
X0104065Y0530386D01*
X0103242Y0530045D01*
X0102470Y0529599D01*
X0101763Y0529057D01*
X0101132Y0528426D01*
X0100590Y0527719D01*
X0100144Y0526947D01*
X0099803Y0526124D01*
X0099572Y0525263D01*
X0099456Y0524379D01*
X0099456Y0523933D01*
X0099779Y0526034D02*
X0033230Y0526034D01*
X0031980Y0527381D02*
X0031980Y0527381D01*
X0030158Y0528432D02*
X0101139Y0528432D01*
X0106256Y0528432D02*
X0106256Y0528432D01*
X0106256Y0526034D02*
X0106256Y0526034D01*
X0106256Y0523635D02*
X0106256Y0523635D01*
X0106256Y0521237D02*
X0106256Y0521237D01*
X0106256Y0518838D02*
X0106256Y0518838D01*
X0110778Y0518838D02*
X0111734Y0518838D01*
X0121056Y0530831D02*
X0023655Y0530831D01*
X0022541Y0531085D02*
X0022541Y0531085D01*
X0019151Y0530831D02*
X0006456Y0530831D01*
X0006456Y0533229D02*
X0121056Y0533229D01*
X0121056Y0535628D02*
X0006456Y0535628D01*
X0006456Y0538026D02*
X0121056Y0538026D01*
X0121056Y0540425D02*
X0006456Y0540425D01*
X0006456Y0542823D02*
X0121056Y0542823D01*
X0121056Y0545222D02*
X0006456Y0545222D01*
X0006456Y0547620D02*
X0121056Y0547620D01*
X0121056Y0550019D02*
X0006456Y0550019D01*
X0006456Y0552417D02*
X0121056Y0552417D01*
X0121056Y0554816D02*
X0006456Y0554816D01*
X0006456Y0557214D02*
X0121056Y0557214D01*
X0121056Y0559613D02*
X0006456Y0559613D01*
X0006456Y0562012D02*
X0121056Y0562012D01*
X0121056Y0564410D02*
X0006456Y0564410D01*
X0006456Y0566809D02*
X0121056Y0566809D01*
X0121056Y0569207D02*
X0006456Y0569207D01*
X0006456Y0571606D02*
X0121056Y0571606D01*
X0121056Y0574004D02*
X0006456Y0574004D01*
X0006456Y0576403D02*
X0121056Y0576403D01*
X0121056Y0578801D02*
X0006456Y0578801D01*
X0006456Y0581200D02*
X0121056Y0581200D01*
X0121056Y0583598D02*
X0006456Y0583598D01*
X0006456Y0585997D02*
X0121056Y0585997D01*
X0119440Y0588395D02*
X0006456Y0588395D01*
X0006456Y0590794D02*
X0117041Y0590794D01*
X0114643Y0593192D02*
X0006456Y0593192D01*
X0006456Y0595591D02*
X0112244Y0595591D01*
X0109846Y0597989D02*
X0006456Y0597989D01*
X0006456Y0600388D02*
X0107447Y0600388D01*
X0105049Y0602786D02*
X0006456Y0602786D01*
X0006456Y0605185D02*
X0102650Y0605185D01*
X0100252Y0607583D02*
X0006456Y0607583D01*
X0006456Y0609982D02*
X0097853Y0609982D01*
X0095455Y0612380D02*
X0006456Y0612380D01*
X0006456Y0614779D02*
X0093056Y0614779D01*
X0090658Y0617177D02*
X0006456Y0617177D01*
X0006456Y0619576D02*
X0088259Y0619576D01*
X0085861Y0621974D02*
X0006456Y0621974D01*
X0006456Y0624373D02*
X0083462Y0624373D01*
X0081064Y0626771D02*
X0006456Y0626771D01*
X0006456Y0629170D02*
X0078665Y0629170D01*
X0076607Y0631568D02*
X0072813Y0631568D01*
X0069699Y0631568D02*
X0062813Y0631568D01*
X0059699Y0631568D02*
X0006456Y0631568D01*
X0006456Y0633967D02*
X0055757Y0633967D01*
X0054310Y0636365D02*
X0006456Y0636365D01*
X0006456Y0638764D02*
X0013353Y0638764D01*
X0012656Y0639037D02*
X0012656Y0639037D01*
X0009991Y0641162D02*
X0006456Y0641162D01*
X0006456Y0643561D02*
X0007743Y0643561D01*
X0017429Y0637164D02*
X0017429Y0637164D01*
X0027540Y0637922D02*
X0027540Y0637922D01*
X0028998Y0638764D02*
X0053856Y0638764D01*
X0054170Y0641162D02*
X0032608Y0641162D01*
X0031980Y0640486D02*
X0031980Y0640486D01*
X0031980Y0640486D01*
X0034833Y0643561D02*
X0055419Y0643561D01*
X0056462Y0645959D02*
X0036293Y0645959D01*
X0035467Y0644244D02*
X0035467Y0644244D01*
X0037448Y0648358D02*
X0058350Y0648358D01*
X0061031Y0650756D02*
X0037977Y0650756D01*
X0038339Y0653155D02*
X0063670Y0653155D01*
X0066308Y0655553D02*
X0038212Y0655553D01*
X0038456Y0653933D02*
X0038456Y0653933D01*
X0037850Y0657952D02*
X0068946Y0657952D01*
X0071569Y0660350D02*
X0037043Y0660350D01*
X0037692Y0659003D02*
X0037692Y0659003D01*
X0035888Y0662749D02*
X0213135Y0662749D01*
X0213135Y0665148D02*
X0034052Y0665148D01*
X0031980Y0667381D02*
X0031980Y0667381D01*
X0031693Y0667546D02*
X0214509Y0667546D01*
X0213135Y0660350D02*
X0117192Y0660350D01*
X0119591Y0657952D02*
X0213135Y0657952D01*
X0213488Y0655553D02*
X0121989Y0655553D01*
X0111673Y0641162D02*
X0098320Y0641162D01*
X0098656Y0638764D02*
X0114071Y0638764D01*
X0116470Y0636365D02*
X0098202Y0636365D01*
X0096755Y0633967D02*
X0118868Y0633967D01*
X0121267Y0631568D02*
X0092009Y0631568D01*
X0091256Y0631568D02*
X0091256Y0631568D01*
X0091256Y0633967D02*
X0091256Y0633967D01*
X0091256Y0636365D02*
X0091256Y0636365D01*
X0091256Y0638764D02*
X0091256Y0638764D01*
X0097032Y0643561D02*
X0109274Y0643561D01*
X0095772Y0626771D02*
X0126064Y0626771D01*
X0128462Y0624373D02*
X0098170Y0624373D01*
X0093373Y0629170D02*
X0123665Y0629170D01*
X0160366Y0617177D02*
X0228464Y0617177D01*
X0228464Y0614779D02*
X0162764Y0614779D01*
X0165163Y0612380D02*
X0228464Y0612380D01*
X0228464Y0609982D02*
X0167561Y0609982D01*
X0169960Y0607583D02*
X0228464Y0607583D01*
X0228464Y0605185D02*
X0172358Y0605185D01*
X0174757Y0602786D02*
X0228464Y0602786D01*
X0228464Y0600388D02*
X0177155Y0600388D01*
X0179554Y0597989D02*
X0228464Y0597989D01*
X0228464Y0595591D02*
X0181952Y0595591D01*
X0184351Y0593192D02*
X0228464Y0593192D01*
X0228464Y0590794D02*
X0186749Y0590794D01*
X0188572Y0588395D02*
X0228464Y0588395D01*
X0228464Y0585997D02*
X0188956Y0585997D01*
X0188956Y0583598D02*
X0228464Y0583598D01*
X0228464Y0581200D02*
X0188956Y0581200D01*
X0188956Y0578801D02*
X0228464Y0578801D01*
X0228464Y0576403D02*
X0188956Y0576403D01*
X0188956Y0574004D02*
X0211710Y0574004D01*
X0211763Y0574057D02*
X0211132Y0573426D01*
X0210590Y0572719D01*
X0210144Y0571947D01*
X0209803Y0571124D01*
X0209572Y0570263D01*
X0209456Y0569379D01*
X0209456Y0568933D01*
X0209456Y0568487D01*
X0209572Y0567604D01*
X0209803Y0566743D01*
X0210144Y0565919D01*
X0210590Y0565147D01*
X0211132Y0564440D01*
X0211763Y0563810D01*
X0212470Y0563267D01*
X0213242Y0562821D01*
X0214065Y0562480D01*
X0214926Y0562249D01*
X0215810Y0562133D01*
X0216256Y0562133D01*
X0216702Y0562133D01*
X0217585Y0562249D01*
X0218446Y0562480D01*
X0219270Y0562821D01*
X0220042Y0563267D01*
X0220749Y0563810D01*
X0221379Y0564440D01*
X0221922Y0565147D01*
X0222368Y0565919D01*
X0222709Y0566743D01*
X0222940Y0567604D01*
X0223056Y0568487D01*
X0223056Y0568933D01*
X0216256Y0568933D01*
X0216256Y0568933D01*
X0216256Y0562133D01*
X0216256Y0568933D01*
X0216256Y0568933D01*
X0223056Y0568933D01*
X0223056Y0569379D01*
X0222940Y0570263D01*
X0222709Y0571124D01*
X0222368Y0571947D01*
X0221922Y0572719D01*
X0221379Y0573426D01*
X0220749Y0574057D01*
X0220042Y0574599D01*
X0219270Y0575045D01*
X0218446Y0575386D01*
X0217585Y0575617D01*
X0216702Y0575733D01*
X0216256Y0575733D01*
X0216256Y0568933D01*
X0216256Y0568933D01*
X0209456Y0568933D01*
X0216256Y0568933D01*
X0216256Y0568933D01*
X0216256Y0575733D01*
X0215810Y0575733D01*
X0214926Y0575617D01*
X0214065Y0575386D01*
X0213242Y0575045D01*
X0212470Y0574599D01*
X0211763Y0574057D01*
X0210003Y0571606D02*
X0188956Y0571606D01*
X0188956Y0569207D02*
X0209456Y0569207D01*
X0209785Y0566809D02*
X0188956Y0566809D01*
X0188956Y0564410D02*
X0202223Y0564410D01*
X0202470Y0564599D02*
X0201763Y0564057D01*
X0201132Y0563426D01*
X0200590Y0562719D01*
X0200144Y0561947D01*
X0199803Y0561124D01*
X0199572Y0560263D01*
X0199456Y0559379D01*
X0199456Y0558933D01*
X0199456Y0558487D01*
X0199572Y0557604D01*
X0199803Y0556743D01*
X0200144Y0555919D01*
X0200590Y0555147D01*
X0201132Y0554440D01*
X0201763Y0553810D01*
X0202470Y0553267D01*
X0203242Y0552821D01*
X0204065Y0552480D01*
X0204926Y0552249D01*
X0205810Y0552133D01*
X0206256Y0552133D01*
X0206702Y0552133D01*
X0207585Y0552249D01*
X0208446Y0552480D01*
X0209270Y0552821D01*
X0210042Y0553267D01*
X0210749Y0553810D01*
X0211379Y0554440D01*
X0211922Y0555147D01*
X0212368Y0555919D01*
X0212709Y0556743D01*
X0212940Y0557604D01*
X0213056Y0558487D01*
X0213056Y0558933D01*
X0206256Y0558933D01*
X0206256Y0558933D01*
X0206256Y0552133D01*
X0206256Y0558933D01*
X0206256Y0558933D01*
X0213056Y0558933D01*
X0213056Y0559379D01*
X0212940Y0560263D01*
X0212709Y0561124D01*
X0212368Y0561947D01*
X0211922Y0562719D01*
X0211379Y0563426D01*
X0210749Y0564057D01*
X0210042Y0564599D01*
X0209270Y0565045D01*
X0208446Y0565386D01*
X0207585Y0565617D01*
X0206702Y0565733D01*
X0206256Y0565733D01*
X0206256Y0558933D01*
X0206256Y0558933D01*
X0199456Y0558933D01*
X0206256Y0558933D01*
X0206256Y0558933D01*
X0206256Y0565733D01*
X0205810Y0565733D01*
X0204926Y0565617D01*
X0204065Y0565386D01*
X0203242Y0565045D01*
X0202470Y0564599D01*
X0200181Y0562012D02*
X0188956Y0562012D01*
X0188956Y0559613D02*
X0199487Y0559613D01*
X0199677Y0557214D02*
X0188956Y0557214D01*
X0188956Y0554816D02*
X0192845Y0554816D01*
X0192470Y0554599D02*
X0191763Y0554057D01*
X0191132Y0553426D01*
X0190590Y0552719D01*
X0190144Y0551947D01*
X0189803Y0551124D01*
X0189572Y0550263D01*
X0189456Y0549379D01*
X0189456Y0548933D01*
X0189456Y0548487D01*
X0189572Y0547604D01*
X0189803Y0546743D01*
X0190144Y0545919D01*
X0190590Y0545147D01*
X0191132Y0544440D01*
X0191763Y0543810D01*
X0192470Y0543267D01*
X0193242Y0542821D01*
X0194065Y0542480D01*
X0194926Y0542249D01*
X0195810Y0542133D01*
X0196256Y0542133D01*
X0196702Y0542133D01*
X0197585Y0542249D01*
X0198446Y0542480D01*
X0199270Y0542821D01*
X0200042Y0543267D01*
X0200749Y0543810D01*
X0201379Y0544440D01*
X0201922Y0545147D01*
X0202368Y0545919D01*
X0202709Y0546743D01*
X0202940Y0547604D01*
X0203056Y0548487D01*
X0203056Y0548933D01*
X0196256Y0548933D01*
X0196256Y0548933D01*
X0196256Y0542133D01*
X0196256Y0548933D01*
X0196256Y0548933D01*
X0203056Y0548933D01*
X0203056Y0549379D01*
X0202940Y0550263D01*
X0202709Y0551124D01*
X0202368Y0551947D01*
X0201922Y0552719D01*
X0201379Y0553426D01*
X0200749Y0554057D01*
X0200042Y0554599D01*
X0199270Y0555045D01*
X0198446Y0555386D01*
X0197585Y0555617D01*
X0196702Y0555733D01*
X0196256Y0555733D01*
X0196256Y0548933D01*
X0196256Y0548933D01*
X0189456Y0548933D01*
X0196256Y0548933D01*
X0196256Y0548933D01*
X0196256Y0555733D01*
X0195810Y0555733D01*
X0194926Y0555617D01*
X0194065Y0555386D01*
X0193242Y0555045D01*
X0192470Y0554599D01*
X0190416Y0552417D02*
X0188956Y0552417D01*
X0188956Y0550019D02*
X0189540Y0550019D01*
X0189570Y0547620D02*
X0188956Y0547620D01*
X0188956Y0545222D02*
X0190547Y0545222D01*
X0188956Y0542823D02*
X0193238Y0542823D01*
X0196256Y0542823D02*
X0196256Y0542823D01*
X0196256Y0545222D02*
X0196256Y0545222D01*
X0196256Y0547620D02*
X0196256Y0547620D01*
X0196256Y0550019D02*
X0196256Y0550019D01*
X0196256Y0552417D02*
X0196256Y0552417D01*
X0196256Y0554816D02*
X0196256Y0554816D01*
X0199666Y0554816D02*
X0200844Y0554816D01*
X0202096Y0552417D02*
X0204299Y0552417D01*
X0206256Y0552417D02*
X0206256Y0552417D01*
X0208213Y0552417D02*
X0228464Y0552417D01*
X0228464Y0550019D02*
X0202972Y0550019D01*
X0202942Y0547620D02*
X0228464Y0547620D01*
X0228774Y0545222D02*
X0201965Y0545222D01*
X0199274Y0542823D02*
X0230577Y0542823D01*
X0232976Y0540425D02*
X0188956Y0540425D01*
X0188956Y0538026D02*
X0235374Y0538026D01*
X0237773Y0535628D02*
X0188956Y0535628D01*
X0206256Y0554816D02*
X0206256Y0554816D01*
X0206256Y0557214D02*
X0206256Y0557214D01*
X0206256Y0559613D02*
X0206256Y0559613D01*
X0206256Y0562012D02*
X0206256Y0562012D01*
X0206256Y0564410D02*
X0206256Y0564410D01*
X0210288Y0564410D02*
X0211162Y0564410D01*
X0212331Y0562012D02*
X0228464Y0562012D01*
X0228464Y0564410D02*
X0221350Y0564410D01*
X0222727Y0566809D02*
X0228464Y0566809D01*
X0228464Y0569207D02*
X0223056Y0569207D01*
X0222509Y0571606D02*
X0228464Y0571606D01*
X0228464Y0574004D02*
X0220802Y0574004D01*
X0216256Y0574004D02*
X0216256Y0574004D01*
X0216256Y0571606D02*
X0216256Y0571606D01*
X0216256Y0569207D02*
X0216256Y0569207D01*
X0216256Y0566809D02*
X0216256Y0566809D01*
X0216256Y0564410D02*
X0216256Y0564410D01*
X0213025Y0559613D02*
X0228464Y0559613D01*
X0228464Y0557214D02*
X0212835Y0557214D01*
X0211668Y0554816D02*
X0228464Y0554816D01*
X0253056Y0550019D02*
X0253382Y0550019D01*
X0253056Y0547620D02*
X0255780Y0547620D01*
X0258179Y0545222D02*
X0252079Y0545222D01*
X0271056Y0574004D02*
X0271710Y0574004D01*
X0273096Y0621974D02*
X0273550Y0621974D01*
X0273550Y0624373D02*
X0273096Y0624373D01*
X0273096Y0626771D02*
X0273550Y0626771D01*
X0273550Y0629170D02*
X0273096Y0629170D01*
X0273096Y0631568D02*
X0273550Y0631568D01*
X0273550Y0633967D02*
X0273096Y0633967D01*
X0273096Y0655553D02*
X0273550Y0655553D01*
X0273550Y0657952D02*
X0273096Y0657952D01*
X0273096Y0660350D02*
X0273550Y0660350D01*
X0273550Y0662749D02*
X0273096Y0662749D01*
X0273096Y0665148D02*
X0273550Y0665148D01*
X0273550Y0667546D02*
X0273096Y0667546D01*
X0278003Y0667546D02*
X0351256Y0667546D01*
X0351256Y0665148D02*
X0279377Y0665148D01*
X0279377Y0662749D02*
X0351256Y0662749D01*
X0351256Y0660350D02*
X0279377Y0660350D01*
X0279377Y0657952D02*
X0351256Y0657952D01*
X0351256Y0655553D02*
X0279024Y0655553D01*
X0237595Y0655553D02*
X0237594Y0655553D01*
X0219416Y0633967D02*
X0218962Y0633967D01*
X0218962Y0631568D02*
X0219416Y0631568D01*
X0219416Y0629170D02*
X0218962Y0629170D01*
X0218962Y0626771D02*
X0219416Y0626771D01*
X0219416Y0624373D02*
X0218962Y0624373D01*
X0218962Y0621974D02*
X0219416Y0621974D01*
X0151158Y0569207D02*
X0131456Y0569207D01*
X0131456Y0566809D02*
X0149509Y0566809D01*
X0148922Y0564410D02*
X0131456Y0564410D01*
X0131456Y0562012D02*
X0149114Y0562012D01*
X0150204Y0559613D02*
X0131456Y0559613D01*
X0131456Y0557214D02*
X0149677Y0557214D01*
X0148922Y0554816D02*
X0131456Y0554816D01*
X0131456Y0552417D02*
X0148946Y0552417D01*
X0149939Y0550019D02*
X0131456Y0550019D01*
X0131456Y0547620D02*
X0149845Y0547620D01*
X0148922Y0545222D02*
X0131456Y0545222D01*
X0131456Y0542823D02*
X0148922Y0542823D01*
X0149771Y0540425D02*
X0131456Y0540425D01*
X0131456Y0538026D02*
X0150013Y0538026D01*
X0149020Y0535628D02*
X0131456Y0535628D01*
X0131456Y0533229D02*
X0148922Y0533229D01*
X0149603Y0530831D02*
X0131456Y0530831D01*
X0057092Y0509244D02*
X0037749Y0509244D01*
X0036720Y0506846D02*
X0054693Y0506846D01*
X0052295Y0504447D02*
X0035565Y0504447D01*
X0035467Y0504244D02*
X0035467Y0504244D01*
X0033430Y0502049D02*
X0049896Y0502049D01*
X0047498Y0499650D02*
X0030533Y0499650D01*
X0031980Y0500486D02*
X0031980Y0500486D01*
X0037904Y0490056D02*
X0006456Y0490056D01*
X0006456Y0487658D02*
X0035505Y0487658D01*
X0033107Y0485259D02*
X0006456Y0485259D01*
X0006456Y0482861D02*
X0030708Y0482861D01*
X0028310Y0480462D02*
X0006456Y0480462D01*
X0006456Y0478064D02*
X0025911Y0478064D01*
X0023513Y0475665D02*
X0006456Y0475665D01*
X0006456Y0473267D02*
X0021114Y0473267D01*
X0018716Y0470868D02*
X0006456Y0470868D01*
X0006456Y0468470D02*
X0016317Y0468470D01*
X0013919Y0466071D02*
X0006456Y0466071D01*
X0006456Y0463673D02*
X0011520Y0463673D01*
X0009122Y0461274D02*
X0006456Y0461274D01*
X0006456Y0458876D02*
X0007516Y0458876D01*
X0007056Y0456477D02*
X0006456Y0456477D01*
X0006456Y0454079D02*
X0007056Y0454079D01*
X0007056Y0451680D02*
X0006456Y0451680D01*
X0006456Y0449281D02*
X0007056Y0449281D01*
X0007056Y0446883D02*
X0006456Y0446883D01*
X0006456Y0444484D02*
X0007056Y0444484D01*
X0007056Y0442086D02*
X0006456Y0442086D01*
X0006456Y0439687D02*
X0007056Y0439687D01*
X0007056Y0437289D02*
X0006456Y0437289D01*
X0006456Y0434890D02*
X0007056Y0434890D01*
X0007056Y0432492D02*
X0006456Y0432492D01*
X0006456Y0430093D02*
X0007056Y0430093D01*
X0007056Y0427695D02*
X0006456Y0427695D01*
X0006456Y0425296D02*
X0007056Y0425296D01*
X0007056Y0422898D02*
X0006456Y0422898D01*
X0006456Y0420499D02*
X0007056Y0420499D01*
X0007056Y0418101D02*
X0006456Y0418101D01*
X0006456Y0415702D02*
X0007056Y0415702D01*
X0006456Y0492455D02*
X0040302Y0492455D01*
X0042701Y0494853D02*
X0006456Y0494853D01*
X0006456Y0497252D02*
X0017206Y0497252D01*
X0011887Y0499650D02*
X0006456Y0499650D01*
X0006456Y0502049D02*
X0008880Y0502049D01*
X0007139Y0504447D02*
X0006456Y0504447D01*
X0006456Y0523635D02*
X0007286Y0523635D01*
X0008647Y0525632D02*
X0008647Y0525632D01*
X0009151Y0526034D02*
X0006456Y0526034D01*
X0006456Y0528432D02*
X0012159Y0528432D01*
X0012656Y0528829D02*
X0012656Y0528829D01*
X0024603Y0497252D02*
X0045099Y0497252D01*
X0270764Y0514041D02*
X0271531Y0514041D01*
X0277969Y0504447D02*
X0304416Y0504447D01*
X0306815Y0506846D02*
X0280957Y0506846D01*
X0283355Y0509244D02*
X0309213Y0509244D01*
X0311612Y0511643D02*
X0285754Y0511643D01*
X0288152Y0514041D02*
X0314010Y0514041D01*
X0316409Y0516440D02*
X0290551Y0516440D01*
X0292949Y0518838D02*
X0318807Y0518838D01*
X0321206Y0521237D02*
X0295348Y0521237D01*
X0297746Y0523635D02*
X0323604Y0523635D01*
D33*
X0346256Y0529933D02*
X0297256Y0529933D01*
X0276256Y0508933D01*
X0266256Y0508933D01*
X0276256Y0518933D02*
X0297256Y0539933D01*
X0346256Y0539933D01*
X0346256Y0549933D02*
X0297256Y0549933D01*
X0286256Y0538933D01*
X0241256Y0538933D01*
X0233264Y0546925D01*
X0233264Y0650744D01*
X0237594Y0650744D02*
X0237594Y0657594D01*
X0236256Y0658933D01*
X0241925Y0650744D02*
X0241925Y0583264D01*
X0246256Y0578933D01*
X0246256Y0548933D01*
X0256256Y0553933D02*
X0256256Y0558933D01*
X0256256Y0608933D01*
X0250587Y0614602D01*
X0250587Y0650744D01*
X0254917Y0650744D02*
X0254917Y0620272D01*
X0266256Y0608933D01*
X0266256Y0568933D01*
X0266256Y0558933D01*
X0276256Y0553933D02*
X0271256Y0548933D01*
X0261256Y0548933D01*
X0256256Y0553933D01*
X0276256Y0553933D02*
X0276256Y0568933D01*
X0296256Y0578933D02*
X0315256Y0559933D01*
X0346256Y0559933D01*
X0346256Y0509933D02*
X0346256Y0508933D01*
X0351256Y0508933D01*
X0363756Y0496433D01*
X0363756Y0461433D01*
X0371256Y0453933D01*
X0371256Y0443933D02*
X0361256Y0443933D01*
X0356256Y0448933D01*
X0356256Y0488933D01*
X0351256Y0493933D01*
X0346256Y0493933D01*
X0378756Y0496433D02*
X0378756Y0471433D01*
X0381256Y0468933D01*
X0381256Y0453933D01*
X0393756Y0453933D01*
X0403756Y0443933D01*
X0403756Y0430183D01*
X0397506Y0423933D01*
X0381256Y0423933D01*
X0381256Y0433933D02*
X0396256Y0433933D01*
X0381256Y0433933D02*
X0381256Y0443933D01*
X0371256Y0433933D02*
X0346256Y0433933D01*
X0346256Y0423933D02*
X0371256Y0423933D01*
X0396256Y0483933D02*
X0421256Y0483933D01*
X0421256Y0523933D01*
X0418451Y0526738D01*
X0411197Y0526738D01*
X0397516Y0503933D02*
X0396256Y0503933D01*
X0391197Y0508992D01*
X0391197Y0516738D01*
X0381256Y0516679D02*
X0381197Y0516738D01*
X0381256Y0516679D02*
X0381256Y0498933D01*
X0378756Y0496433D01*
X0248756Y0598933D02*
X0248756Y0606433D01*
X0246256Y0608933D01*
X0246256Y0650744D01*
D34*
X0156256Y0513933D02*
X0137506Y0513933D01*
X0135006Y0516433D01*
M02*
