%
M48
M72
T01C0.0315
T02C0.0320
T03C0.0360
T04C0.0394
T05C0.0400
T06C0.0440
T07C0.0590
T08C0.0630
T09C0.1260
T10C0.1300
%
T01
X38120Y51674
X38120Y52674
X39120Y52674
X39120Y51674
X40120Y51674
X40120Y52674
X41120Y52674
X41120Y51674
T02
X39126Y49393
X39626Y48393
X42126Y48393
X44126Y49393
X42126Y43393
X39626Y43393
X35126Y40893
X33626Y40393
X33626Y39393
X32126Y40893
X30626Y40393
X30626Y39393
X32126Y35893
X33126Y34893
X32126Y33643
X33126Y32393
X35126Y35893
X27126Y34893
X27126Y33643
X27126Y32393
X27126Y30893
X27126Y27393
X27126Y23893
X27126Y20393
X22126Y20393
X20626Y20393
X20626Y21393
X20626Y22893
X20626Y23893
X20626Y24893
X20626Y26393
X20626Y27393
X20626Y28393
X20626Y29893
X20626Y30893
X20626Y31893
X22126Y30893
X22126Y27393
X22126Y23893
X20626Y19393
X32126Y19893
X33126Y19893
X40626Y11893
X40626Y6893
X12626Y46393
X12626Y47393
X11626Y47393
X11626Y46393
X10626Y46393
X10626Y47393
X11126Y44393
X10126Y44393
X9126Y44393
X8126Y44393
X7126Y44393
X6126Y44393
X5126Y44393
X4126Y44393
X4126Y41393
X5126Y41393
X6126Y41393
X7126Y41393
X8126Y41393
X9126Y41393
X10126Y41393
X11126Y41393
X6626Y31893
X6626Y25393
X1626Y25393
X1626Y31893
X1626Y18893
X2626Y12393
X6626Y18893
X7626Y12393
X26626Y50893
X27626Y51893
X26626Y55893
X26626Y56893
X27626Y56893
X29626Y57893
X29876Y59893
X25626Y55893
X24626Y54893
X24626Y57893
X24876Y59893
X21626Y56893
X20626Y55893
X19626Y54893
X12626Y52393
X11626Y52393
X10626Y52393
T03
X7626Y35893
X7626Y33893
X7626Y29393
X7626Y27393
X7626Y22893
X7626Y20893
X7626Y16393
X7626Y14393
X1626Y14393
X1626Y16393
X1626Y20893
X1626Y22893
X1626Y27393
X1626Y29393
X1626Y33893
X1626Y35893
T04
X15626Y42393
X15626Y43393
X15626Y44393
X15626Y45393
X15626Y46393
X15626Y47393
X15626Y49393
X15626Y50393
X15626Y51393
X15626Y52393
X15626Y53393
X15626Y54393
X15626Y55393
X15626Y56393
X34626Y55993
X34626Y56993
X34626Y57993
X34626Y58993
X34626Y59993
X34626Y54993
X34626Y53993
X34626Y52993
X34626Y51993
X34626Y50993
X34626Y49393
X34626Y48393
X34626Y47393
X34626Y46393
X34626Y45393
X34626Y44393
X34626Y43393
X34626Y42393
T05
X37126Y42393
X37126Y43393
X38126Y43393
X38126Y42393
X38126Y44393
X38126Y45393
X37126Y45393
X37126Y44393
X39626Y39893
X41626Y39893
X34126Y23393
X32126Y23393
X9126Y63893
X8126Y63893
X7126Y63893
X6126Y63893
T06
X17626Y35893
X17626Y34893
X17626Y33893
X17626Y29393
X17626Y28393
X17626Y27393
X17626Y22893
X17626Y21893
X17626Y20893
X17626Y16393
X17626Y15393
X17626Y14393
X36126Y31893
X36126Y32893
X36126Y33893
X36626Y11393
X37626Y11393
X38626Y11393
T07
X31126Y11393
X28126Y11393
X25126Y11393
X22126Y11393
X22126Y17393
X25126Y17393
X28126Y17393
X31126Y17393
T08
X30641Y7893
X28673Y7893
X26704Y7893
X24736Y7893
X22767Y7893
X20799Y7893
X18830Y7893
X16860Y7893
X14891Y7893
X32610Y7893
X34673Y7893
X36641Y7893
X38610Y7893
T09
X2126Y8393
X2126Y51393
X2126Y65393
X43376Y65393
X43376Y22393
X43376Y8393
T10
X37626Y18293
X43026Y32893
X10726Y34893
X10726Y28393
X10726Y21893
X10726Y15393
M30
